<svg xmlns="http://www.w3.org/2000/svg" width="1920" height="413.322" viewBox="0 0 1920 413.322">
  <g id="Divider_7" data-name="Divider 7" transform="translate(0 -200)">
    <path id="Path_176" data-name="Path 176" d="M1920,426.314V551.425c-47.991,0-47.991-63.8-96-63.8-47.992,0-47.992,63.8-96,63.8-47.992,0-47.992-63.8-95.993-63.8s-48,63.8-95.994,63.8-48-63.8-96.007-63.8-48,63.8-95.994,63.8-48-63.8-95.993-63.8-48,63.8-95.993,63.8-48-63.8-95.993-63.8-48,63.8-96.007,63.8-48-63.8-95.993-63.8-48,63.8-96.007,63.8-48-63.8-95.993-63.8-48.01,63.8-96.007,63.8-48-63.8-96.007-63.8-48,63.8-95.993,63.8-48-63.8-96.007-63.8-48,63.8-96.007,63.8-48-63.8-96.007-63.8-48,63.8-96.007,63.8V426.314c.227,0,.44,0,.666-.011,47.344-.576,47.57-63.785,95.34-63.785,48.01,0,48.01,63.8,96.007,63.8s48.01-63.8,96.007-63.8,48.01,63.8,96.007,63.8,48-63.8,95.993-63.8,48.01,63.8,96.007,63.8,48-63.8,96.007-63.8,48,63.8,95.993,63.8,48.01-63.8,96.007-63.8,48,63.8,95.993,63.8,48.01-63.8,96.007-63.8,48,63.8,95.993,63.8,48-63.8,95.993-63.8,48,63.8,95.993,63.8,48-63.8,95.994-63.8,48.01,63.8,96.007,63.8,48-63.8,95.994-63.8,48,63.8,95.993,63.8c48.008,0,48.008-63.8,96-63.8C1872.009,362.518,1872.009,426.314,1920,426.314Z" transform="translate(0 61.897)" fill="#9013fe"/>
    <path id="Path_177" data-name="Path 177" d="M.4,200V488.2c47.346-.576,47.573-63.785,95.346-63.785,48.013,0,48.013,63.8,96.011,63.8,48.014,0,48.014-63.8,96.012-63.8,48.014,0,48.014,63.8,96.014,63.8s48-63.8,96-63.8,48.013,63.8,96.012,63.8,48-63.8,96.012-63.8,48,63.8,96,63.8c48.014,0,48.014-63.8,96.014-63.8s48,63.8,96,63.8,48.013-63.8,96.012-63.8,48,63.8,96,63.8,48-63.8,96-63.8,48,63.8,96,63.8,48-63.8,96-63.8,48.013,63.8,96.012,63.8,48-63.8,96-63.8,48,63.8,96,63.8c48.011,0,48.011-63.8,96.005-63.8,48.011,0,48.011,63.8,96.006,63.8V200Z" transform="translate(0.153 0)" fill="#10bce0"/>
    <path id="Path_178" data-name="Path 178" d="M1919.847,200v98.761c-47.978,0-47.978,63.774-95.989,63.774-47.978,0-47.978-63.774-95.972-63.774s-47.995,63.774-95.981,63.774-47.986-63.774-95.972-63.774-47.986,63.774-95.973,63.774-47.986-63.774-95.972-63.774-47.986,63.774-95.973,63.774-47.986-63.774-95.972-63.774-47.986,63.774-95.973,63.774-47.986-63.774-95.972-63.774-47.986,63.774-95.972,63.774-47.986-63.774-95.973-63.774-47.973,63.774-95.959,63.774-47.986-63.774-95.972-63.774-47.986,63.774-95.972,63.774-47.986-63.774-95.972-63.774-47.986,63.774-95.972,63.774-47.986-63.774-95.959-63.774-47.986,63.774-95.972,63.774S48.387,298.761.4,298.761V200Z" transform="translate(0.153 0)" fill="#fff" opacity="0.3"/>
  </g>
</svg>
