<svg id="Divider_7" data-name="Divider 7" xmlns="http://www.w3.org/2000/svg" width="1920" height="310.345" viewBox="0 0 1920 310.345">
  <path id="Path_176" data-name="Path 176" d="M1920,413.915v100.8c-47.992,0-47.992-51.4-96-51.4-47.992,0-47.992,51.4-96,51.4-47.992,0-47.992-51.4-95.993-51.4s-48,51.4-95.993,51.4-48-51.4-96.007-51.4-48,51.4-95.993,51.4-48-51.4-95.993-51.4-48,51.4-95.993,51.4-48-51.4-95.993-51.4-48,51.4-96.007,51.4-48-51.4-95.993-51.4-48,51.4-96.007,51.4-48-51.4-95.993-51.4-48.01,51.4-96.007,51.4-48-51.4-96.007-51.4-48,51.4-95.993,51.4-48-51.4-96.007-51.4-48,51.4-96.007,51.4-48-51.4-96.007-51.4-48,51.4-96.007,51.4v-100.8c.227,0,.44,0,.666-.009,47.344-.464,47.57-51.388,95.34-51.388,48.01,0,48.01,51.4,96.007,51.4s48.01-51.4,96.007-51.4,48.01,51.4,96.007,51.4,48-51.4,95.993-51.4,48.01,51.4,96.007,51.4,48-51.4,96.007-51.4,48,51.4,95.993,51.4,48.01-51.4,96.007-51.4,48,51.4,95.993,51.4,48.01-51.4,96.007-51.4,48,51.4,95.993,51.4,48-51.4,95.993-51.4,48,51.4,95.993,51.4,48-51.4,95.993-51.4,48.01,51.4,96.007,51.4,48-51.4,95.993-51.4,48,51.4,95.993,51.4c48.008,0,48.008-51.4,96-51.4C1872.008,362.518,1872.008,413.915,1920,413.915Z" transform="translate(0 -204.366)" fill="#9013fe"/>
  <path id="Path_177" data-name="Path 177" d="M.4,200V432.188C47.75,431.724,47.977,380.8,95.753,380.8c48.016,0,48.016,51.4,96.017,51.4,48.017,0,48.017-51.4,96.018-51.4,48.017,0,48.017,51.4,96.019,51.4s48-51.4,96-51.4,48.016,51.4,96.018,51.4,48-51.4,96.018-51.4,48,51.4,96,51.4c48.017,0,48.017-51.4,96.019-51.4s48,51.4,96,51.4,48.016-51.4,96.018-51.4,48,51.4,96,51.4,48-51.4,96-51.4,48,51.4,96,51.4,48-51.4,96-51.4,48.016,51.4,96.018,51.4,48-51.4,96-51.4,48.006,51.4,96,51.4c48.014,0,48.014-51.4,96.011-51.4,48.014,0,48.014,51.4,96.011,51.4V200Z" transform="translate(0.045 -200)" fill="#10bce0"/>
  <path id="Path_178" data-name="Path 178" d="M1919.955,200v79.567c-47.98,0-47.98,51.379-95.995,51.379-47.981,0-47.981-51.379-95.978-51.379s-48,51.379-95.986,51.379-47.989-51.379-95.977-51.379-47.989,51.379-95.978,51.379-47.989-51.379-95.978-51.379-47.989,51.379-95.978,51.379-47.989-51.379-95.978-51.379-47.989,51.379-95.978,51.379-47.989-51.379-95.978-51.379-47.989,51.379-95.978,51.379-47.989-51.379-95.978-51.379-47.975,51.379-95.964,51.379-47.989-51.379-95.978-51.379-47.989,51.379-95.978,51.379-47.989-51.379-95.978-51.379-47.989,51.379-95.978,51.379-47.989-51.379-95.964-51.379-47.988,51.379-95.977,51.379S48.39,279.566.4,279.566V200Z" transform="translate(0.045 -200)" fill="#fff" opacity="0.3"/>
</svg>
