<svg xmlns="http://www.w3.org/2000/svg" width="134.767" height="131.441" viewBox="0 0 134.767 131.441">
  <path id="Path_179" data-name="Path 179" d="M203.7,107.44a67.392,67.392,0,0,0-21.3,131.326c3.371.616,4.6-1.46,4.6-3.247,0-1.6-.058-5.837-.091-11.463-18.743,4.075-22.7-9.03-22.7-9.03-3.065-7.785-7.483-9.858-7.483-9.858-6.118-4.182.463-4.1.463-4.1,6.763.476,10.321,6.941,10.321,6.941,6.011,10.3,15.773,7.326,19.612,5.6.612-4.356,2.354-7.326,4.277-9.01-14.962-1.7-30.694-7.479-30.694-33.3a26.05,26.05,0,0,1,6.937-18.081c-.695-1.7-3.007-8.555.662-17.833,0,0,5.655-1.812,18.528,6.908a63.9,63.9,0,0,1,33.738,0c12.865-8.72,18.511-6.908,18.511-6.908,3.677,9.279,1.365,16.129.674,17.833a26,26,0,0,1,6.925,18.081c0,25.887-15.756,31.583-30.768,33.25,2.42,2.081,4.575,6.2,4.575,12.48,0,9.01-.083,16.278-.083,18.487,0,1.8,1.216,3.9,4.633,3.239A67.394,67.394,0,0,0,203.7,107.44Z" transform="translate(-136.32 -107.44)" fill="#fff" fill-rule="evenodd"/>
</svg>
