<svg width="48" height="48" viewBox="0 0 24 24" fill="none" xmlns="http://www.w3.org/2000/svg"><rect width="24" height="24" fill="none" rx="50" ry="50"></rect><path fill-rule="evenodd" clip-rule="evenodd" d="M15.185 13.5152C15.035 13.5152 14.875 13.4552 14.765 13.3352C14.535 13.1052 14.535 12.7252 14.765 12.4852L16.105 11.1452C16.535 10.7152 16.775 10.1352 16.775 9.51519C16.775 8.89519 16.535 8.32519 16.105 7.88519C15.235 7.01519 13.725 7.01519 12.855 7.88519L11.505 9.24519C11.275 9.47519 10.895 9.47519 10.655 9.24519C10.415 9.01519 10.425 8.63519 10.655 8.39519L11.995 7.05519C13.315 5.73519 15.625 5.73519 16.945 7.05519C17.605 7.71519 17.965 8.59519 17.965 9.52519C17.965 10.4652 17.605 11.3352 16.945 12.0052L15.605 13.3452C15.485 13.4652 15.335 13.5152 15.185 13.5152ZM9.5249 17.9752C8.5849 17.9752 7.7149 17.6152 7.0449 16.9552C6.3849 16.2952 6.0249 15.4152 6.0249 14.4852C6.0249 13.5452 6.3849 12.6752 7.0449 12.0052L8.3849 10.6652C8.6149 10.4352 8.9949 10.4352 9.2349 10.6652C9.4749 10.8952 9.4649 11.2752 9.2349 11.5152L7.8949 12.8552C7.4649 13.2852 7.2249 13.8652 7.2249 14.4852C7.2249 15.1052 7.4649 15.6752 7.8949 16.1152C8.7649 16.9852 10.2749 16.9852 11.1449 16.1152L12.4849 14.7752C12.7149 14.5452 13.0949 14.5452 13.3349 14.7752C13.5749 15.0052 13.5649 15.3852 13.3349 15.6252L12.0049 16.9452C11.3349 17.6152 10.4649 17.9752 9.5249 17.9752ZM9.41501 14.585C9.56501 14.735 9.75501 14.805 9.94501 14.805C10.145 14.805 10.335 14.725 10.475 14.585L14.575 10.485C14.865 10.195 14.865 9.71502 14.575 9.42502C14.285 9.13502 13.805 9.13502 13.515 9.42502L9.41501 13.525C9.12501 13.815 9.12501 14.295 9.41501 14.585" fill="#ededed"></path><path fill-rule="evenodd" clip-rule="evenodd" d="M11.995 21.995C9.435 21.995 6.875 21.025 4.925 19.075C1.025 15.175 1.025 8.83501 4.925 4.93501C8.825 1.03501 15.165 1.03501 19.065 4.93501C22.965 8.83501 22.965 15.175 19.065 19.075C17.125 21.025 14.565 21.995 11.995 21.995ZM11.995 3.20501C9.745 3.20501 7.485 4.06501 5.775 5.77501C2.345 9.20501 2.345 14.785 5.775 18.225C9.205 21.655 14.785 21.655 18.225 18.225C21.655 14.795 21.655 9.21501 18.225 5.77501C16.505 4.06501 14.255 3.20501 11.995 3.20501Z" fill="#ffffff"></path><path fill-rule="evenodd" clip-rule="evenodd" d="M9.94501 14.805C9.75501 14.805 9.56501 14.735 9.41501 14.585C9.12501 14.295 9.12501 13.815 9.41501 13.525L13.515 9.42502C13.805 9.13502 14.285 9.13502 14.575 9.42502C14.865 9.71502 14.865 10.195 14.575 10.485L10.475 14.585C10.335 14.725 10.145 14.805 9.94501 14.805Z" fill="black" fill-opacity="0.3"></path></svg>