<svg width="24" height="24" viewBox="0 0 24 24" fill="none" xmlns="http://www.w3.org/2000/svg"><rect width="24" height="24" fill="none" rx="0" ry="0"></rect><path fill-rule="evenodd" clip-rule="evenodd" d="M6 10C4.89543 10 4 10.8954 4 12C4 13.1046 4.89543 14 6 14H18C19.1046 14 20 13.1046 20 12C20 10.8954 19.1046 10 18 10H6ZM6 11.2C5.55817 11.2 5.2 11.5582 5.2 12C5.2 12.4418 5.55817 12.8 6 12.8H18C18.4418 12.8 18.8 12.4418 18.8 12C18.8 11.5582 18.4418 11.2 18 11.2H6Z" fill="#50e3c2"></path><path fill-rule="evenodd" clip-rule="evenodd" d="M4 6C4 4.89543 4.89543 4 6 4H18C19.1046 4 20 4.89543 20 6C20 7.10457 19.1046 8 18 8H6C4.89543 8 4 7.10457 4 6ZM5.2 6C5.2 5.55817 5.55817 5.2 6 5.2H18C18.4418 5.2 18.8 5.55817 18.8 6C18.8 6.44183 18.4418 6.8 18 6.8H6C5.55817 6.8 5.2 6.44183 5.2 6ZM4 18C4 16.8954 4.89543 16 6 16H18C19.1046 16 20 16.8954 20 18C20 19.1046 19.1046 20 18 20H6C4.89543 20 4 19.1046 4 18ZM5.2 18C5.2 17.5582 5.55817 17.2 6 17.2H18C18.4418 17.2 18.8 17.5582 18.8 18C18.8 18.4418 18.4418 18.8 18 18.8H6C5.55817 18.8 5.2 18.4418 5.2 18Z" fill="#9013fe"></path><path fill-rule="evenodd" clip-rule="evenodd" d="M6 16C4.89543 16 4 16.8954 4 18C4 19.1046 4.89543 20 6 20H18C19.1046 20 20 19.1046 20 18C20 16.8954 19.1046 16 18 16H6ZM6 17.2C5.55817 17.2 5.2 17.5582 5.2 18C5.2 18.4418 5.55817 18.8 6 18.8H18C18.4418 18.8 18.8 18.4418 18.8 18C18.8 17.5582 18.4418 17.2 18 17.2H6Z" fill="black" fill-opacity="0.3"></path></svg>