<svg xmlns="http://www.w3.org/2000/svg" width="863.5" height="617.838" viewBox="0 0 863.5 617.838">
  <g id="Tech_Junkie_2_male_" data-name="Tech Junkie 2 (male)" transform="translate(-177 -77.738)">
    <path id="Path_40" data-name="Path 40" d="M177,650h0Z" transform="translate(0 45.037)" fill="#fff"/>
    <path id="Path_41" data-name="Path 41" d="M177.5,650.5h0Z" transform="translate(0.039 45.077)" fill="#1e1e1e"/>
    <path id="Path_42" data-name="Path 42" d="M177,234.1h863.5" transform="translate(0 12.306)" fill="none" stroke="#fff" stroke-miterlimit="10" stroke-width="1"/>
    <path id="Path_43" data-name="Path 43" d="M1040.5,429.3H177" transform="translate(0 27.668)" fill="none" stroke="#fff" stroke-miterlimit="10" stroke-width="1"/>
    <path id="Path_44" data-name="Path 44" d="M177,270.7h863.5" transform="translate(0 15.186)" fill="none" stroke="#fff" stroke-miterlimit="10" stroke-width="1"/>
    <path id="Path_45" data-name="Path 45" d="M1040.5,465.9H177" transform="translate(0 30.548)" fill="none" stroke="#fff" stroke-miterlimit="10" stroke-width="1"/>
    <path id="Path_46" data-name="Path 46" d="M737.086,78.667l40.451,20.28a8.555,8.555,0,0,1,3.883,11.542l-13.465,26.861h173.76A18.553,18.553,0,0,1,960.269,155.9V379.416a43.153,43.153,0,0,1,0,85.851V549.2a18.553,18.553,0,0,1-18.554,18.554H262.458A18.553,18.553,0,0,1,243.9,549.2V199.424a55.133,55.133,0,1,1,73.549-62.075H714.744l-5.6-2.806A8.555,8.555,0,0,1,705.264,123l20.28-40.451A8.555,8.555,0,0,1,737.086,78.667Zm223.183,364.8a21.584,21.584,0,0,0,0-42.247ZM243.9,176.5V155.9a18.553,18.553,0,0,1,18.554-18.554h33.886A34.636,34.636,0,1,0,243.9,176.5ZM597.61,605.938A7.763,7.763,0,0,0,583.263,600l-6.3,15.177-15.279-6.333a7.182,7.182,0,1,0-5.5,13.268l15.276,6.332-6.323,15.243a7.763,7.763,0,1,0,14.347,5.933l6.319-15.232,15.147,6.278a7.182,7.182,0,0,0,9.385-3.883,7.257,7.257,0,0,0-3.883-9.385l-15.145-6.277ZM898.783,158.127h-.58v11.3h12.379v-11.3h-11.8Zm.58,10.14v-8.979h10.058v8.979Zm39.311-9.648a.581.581,0,0,1,0,.821l-4.444,4.444,4.444,4.443a.58.58,0,0,1-.821.821l-4.444-4.443-4.443,4.443a.58.58,0,0,1-.821-.821l4.443-4.443-4.443-4.444a.58.58,0,1,1,.821-.821l4.443,4.444,4.444-4.444A.581.581,0,0,1,938.675,158.619ZM868,163.669a.581.581,0,0,1,.58-.581h11.65a.581.581,0,0,1,0,1.162h-11.65A.58.58,0,0,1,868,163.669ZM371.838,214.908H928.555v-1.079H371.838ZM462.664,337.88a1.081,1.081,0,0,0-1.079,1.079v2.265H459.32a.971.971,0,1,0,0,1.942h2.265v2.265a1.079,1.079,0,1,0,2.157,0v-2.265H465.9a.971.971,0,1,0,0-1.942h-2.157v-2.265A1.081,1.081,0,0,0,462.664,337.88Zm109.92,1.079a1.079,1.079,0,1,1,2.157,0v2.265h2.265a.971.971,0,1,1,0,1.942h-2.265v2.265a1.079,1.079,0,1,1-2.157,0v-2.265h-2.265a.971.971,0,1,1,0-1.942h2.265Zm223.83-1.079a1.081,1.081,0,0,0-1.079,1.079v2.265h-2.373a.971.971,0,1,0,0,1.942h2.373v2.265a1.079,1.079,0,0,0,2.157,0v-2.265h2.157a.971.971,0,1,0,0-1.942h-2.157v-2.265A1.081,1.081,0,0,0,796.414,337.88Zm110.567,0a1.081,1.081,0,0,0-1.079,1.079v2.265h-2.265a.971.971,0,1,0,0,1.942H905.9v2.265a1.079,1.079,0,0,0,2.157,0v-2.265h2.265a.971.971,0,1,0,0-1.942H908.06v-2.265A1.081,1.081,0,0,0,906.981,337.88ZM683.69,338.958a1.079,1.079,0,0,1,2.157,0v2.265h2.265a.971.971,0,1,1,0,1.942h-2.265v2.265a1.079,1.079,0,0,1-2.157,0v-2.265h-2.265a.971.971,0,0,1,0-1.942h2.265ZM276.049,158.708h32.792v4.854H276.049Zm0,8.09h23.624v4.854H276.049Zm29.017,7.98H276.049v4.854h29.017ZM876.778,532.908H423.615v-1.079H876.778Z" transform="translate(2.455)" fill="#9013fe" fill-rule="evenodd"/>
    <path id="Path_47" data-name="Path 47" d="M347.1,157.4v393.51" transform="translate(13.387 6.27)" fill="none" stroke="#666" stroke-width="1.076"/>
    <path id="Path_48" data-name="Path 48" d="M371.85,175.1H905.375a15.749,15.749,0,0,1,0,31.5H371.85a15.749,15.749,0,0,1,0-31.5Z" transform="translate(14.095 7.662)" fill="rgba(255,255,255,0.24)"/>
    <path id="Path_49" data-name="Path 49" d="M340.012,267.2H271.3v2.265h68.713Z" transform="translate(7.421 14.911)" fill="rgba(255,255,255,0.38)"/>
    <path id="Path_50" data-name="Path 50" d="M340.012,272.5H271.3v2.265h68.713Z" transform="translate(7.421 15.328)" fill="rgba(255,255,255,0.38)"/>
    <path id="Path_51" data-name="Path 51" d="M340.012,277.8H271.3v2.265h68.713Z" transform="translate(7.421 15.745)" fill="rgba(255,255,255,0.38)"/>
    <path id="Path_52" data-name="Path 52" d="M340.012,292.6H271.3v2.265h68.713Z" transform="translate(7.421 16.91)" fill="rgba(255,255,255,0.38)"/>
    <path id="Path_53" data-name="Path 53" d="M340.012,297.9H271.3v2.265h68.713Z" transform="translate(7.421 17.327)" fill="rgba(255,255,255,0.38)"/>
    <path id="Path_54" data-name="Path 54" d="M340.012,303.2H271.3v2.265h68.713Z" transform="translate(7.421 17.744)" fill="rgba(255,255,255,0.38)"/>
    <path id="Path_55" data-name="Path 55" d="M340.012,318H271.3v2.265h68.713Z" transform="translate(7.421 18.909)" fill="rgba(255,255,255,0.38)"/>
    <path id="Path_56" data-name="Path 56" d="M340.012,323.3H271.3v2.265h68.713Z" transform="translate(7.421 19.325)" fill="rgba(255,255,255,0.38)"/>
    <path id="Path_57" data-name="Path 57" d="M340.012,328.6H271.3v2.265h68.713Z" transform="translate(7.421 19.743)" fill="rgba(255,255,255,0.38)"/>
    <path id="Path_58" data-name="Path 58" d="M340.012,343.4H271.3v2.265h68.713Z" transform="translate(7.421 20.908)" fill="rgba(255,255,255,0.38)"/>
    <path id="Path_59" data-name="Path 59" d="M340.012,348.7H271.3v2.265h68.713Z" transform="translate(7.421 21.325)" fill="rgba(255,255,255,0.38)"/>
    <path id="Path_60" data-name="Path 60" d="M340.012,354H271.3v2.265h68.713Z" transform="translate(7.421 21.742)" fill="rgba(255,255,255,0.38)"/>
    <path id="Path_61" data-name="Path 61" d="M340.012,368.8H271.3v2.265h68.713Z" transform="translate(7.421 22.906)" fill="rgba(255,255,255,0.38)"/>
    <path id="Path_62" data-name="Path 62" d="M340.012,374.1H271.3v2.265h68.713Z" transform="translate(7.421 23.324)" fill="rgba(255,255,255,0.38)"/>
    <path id="Path_63" data-name="Path 63" d="M340.012,379.4H271.3v2.265h68.713Z" transform="translate(7.421 23.741)" fill="rgba(255,255,255,0.38)"/>
    <path id="Path_64" data-name="Path 64" d="M340.012,394.2H271.3v2.265h68.713Z" transform="translate(7.421 24.906)" fill="rgba(255,255,255,0.38)"/>
    <path id="Path_65" data-name="Path 65" d="M340.012,399.5H271.3v2.265h68.713Z" transform="translate(7.421 25.323)" fill="rgba(255,255,255,0.38)"/>
    <path id="Path_66" data-name="Path 66" d="M340.012,404.8H271.3v2.265h68.713Z" transform="translate(7.421 25.74)" fill="rgba(255,255,255,0.38)"/>
    <path id="Path_67" data-name="Path 67" d="M340.012,419.6H271.3v2.265h68.713Z" transform="translate(7.421 26.905)" fill="rgba(255,255,255,0.38)"/>
    <path id="Path_68" data-name="Path 68" d="M340.012,424.9H271.3v2.265h68.713Z" transform="translate(7.421 27.322)" fill="rgba(255,255,255,0.38)"/>
    <path id="Path_69" data-name="Path 69" d="M340.012,430.2H271.3v2.265h68.713Z" transform="translate(7.421 27.739)" fill="rgba(255,255,255,0.38)"/>
    <path id="Path_70" data-name="Path 70" d="M341.931,442.2H271.6v70.008h70.331Z" transform="translate(7.445 28.683)" fill="rgba(255,255,255,0.38)"/>
    <path id="Path_71" data-name="Path 71" d="M341.931,189.7H271.6v70.008h70.331Z" transform="translate(7.445 8.811)" fill="rgba(255,255,255,0.38)"/>
    <path id="Path_72" data-name="Path 72" d="M478.023,249.4h70.439a4.327,4.327,0,0,1,4.315,4.315v70.547a4.327,4.327,0,0,1-4.315,4.315H477.915a4.327,4.327,0,0,1-4.315-4.315V253.717A4.494,4.494,0,0,1,478.023,249.4Z" transform="translate(23.343 13.51)" fill="rgba(255,255,255,0.38)"/>
    <path id="Path_73" data-name="Path 73" d="M519.436,326.8H473.7v6.256h45.737Z" transform="translate(23.35 19.601)" fill="rgba(255,255,255,0.28)"/>
    <path id="Path_74" data-name="Path 74" d="M375.016,249.4h70.547a4.328,4.328,0,0,1,4.315,4.315v70.547a4.327,4.327,0,0,1-4.315,4.315H375.016a4.327,4.327,0,0,1-4.315-4.315V253.717A4.327,4.327,0,0,1,375.016,249.4Z" transform="translate(15.244 13.51)" fill="rgba(255,255,255,0.38)"/>
    <path id="Path_75" data-name="Path 75" d="M416.438,326.8H370.7v6.256h45.737Z" transform="translate(15.244 19.601)" fill="rgba(255,255,255,0.28)"/>
    <path id="Path_76" data-name="Path 76" d="M580.915,249.4h70.547a4.328,4.328,0,0,1,4.315,4.315v70.547a4.328,4.328,0,0,1-4.315,4.315H580.915a4.327,4.327,0,0,1-4.315-4.315V253.717A4.4,4.4,0,0,1,580.915,249.4Z" transform="translate(31.449 13.51)" fill="rgba(255,255,255,0.38)"/>
    <path id="Path_77" data-name="Path 77" d="M622.436,326.8H576.7v6.256h45.737Z" transform="translate(31.456 19.601)" fill="rgba(255,255,255,0.28)"/>
    <path id="Path_78" data-name="Path 78" d="M684.415,249.4h70.547a4.327,4.327,0,0,1,4.315,4.315v70.547a4.327,4.327,0,0,1-4.315,4.315H684.415a4.328,4.328,0,0,1-4.315-4.315V253.717A4.328,4.328,0,0,1,684.415,249.4Z" transform="translate(39.594 13.51)" fill="rgba(255,255,255,0.38)"/>
    <path id="Path_79" data-name="Path 79" d="M725.837,326.8H680.1v6.256h45.737Z" transform="translate(39.594 19.601)" fill="rgba(255,255,255,0.28)"/>
    <path id="Path_80" data-name="Path 80" d="M786.915,249.4h70.547a4.327,4.327,0,0,1,4.315,4.315v70.547a4.327,4.327,0,0,1-4.315,4.315H786.915a4.328,4.328,0,0,1-4.315-4.315V253.717A4.328,4.328,0,0,1,786.915,249.4Z" transform="translate(47.661 13.51)" fill="rgba(255,255,255,0.38)"/>
    <path id="Path_81" data-name="Path 81" d="M828.337,326.8H782.6v6.256h45.737Z" transform="translate(47.661 19.601)" fill="rgba(255,255,255,0.28)"/>
    <path id="Path_82" data-name="Path 82" d="M427.044,286.488a17.592,17.592,0,1,0-26.353,12.341c-13.634,2.826-23.591,11.923-23.591,22.716a17.2,17.2,0,0,0,.971,5.717h63.212a17.207,17.207,0,0,0,.971-5.717c0-10.8-9.974-19.9-23.622-22.723A17.41,17.41,0,0,0,427.044,286.488Zm102.765,12.35a17.582,17.582,0,1,0-17.892-.032c-13.694,2.8-23.71,11.915-23.71,22.74a17.207,17.207,0,0,0,.971,5.717h63.212a17.206,17.206,0,0,0,.971-5.717C553.36,310.763,543.421,301.673,529.808,298.838Zm111.026-.016a17.582,17.582,0,1,0-17.892,0c-13.653,2.816-23.63,11.92-23.63,22.724a17.208,17.208,0,0,0,.971,5.717H663.5a17.2,17.2,0,0,0,.971-5.717C664.466,310.741,654.488,301.637,640.835,298.822Zm111.646,0a17.582,17.582,0,1,0-17.892,0c-13.653,2.816-23.63,11.92-23.63,22.724a17.21,17.21,0,0,0,.971,5.717h63.212a20.49,20.49,0,0,0,.971-5.717C776.111,310.741,766.133,301.637,752.48,298.822Zm110.567,0a17.582,17.582,0,1,0-17.892,0c-13.653,2.816-23.63,11.92-23.63,22.724a17.208,17.208,0,0,0,.971,5.717h63.212a17.2,17.2,0,0,0,.971-5.717C886.678,310.741,876.7,301.637,863.047,298.822Z" transform="translate(15.748 14.824)" fill="rgba(255,255,255,0.42)" fill-rule="evenodd"/>
    <path id="Path_83" data-name="Path 83" d="M747.437,313.2h13.484a3.178,3.178,0,0,1,3.236,3.236v14.347a3.178,3.178,0,0,1-3.236,3.236H747.437a3.178,3.178,0,0,1-3.236-3.236V316.435A3.318,3.318,0,0,1,747.437,313.2Z" transform="translate(44.639 18.531)" fill="rgba(255,255,255,0.44)"/>
    <path id="Path_84" data-name="Path 84" d="M850.035,313.2h13.484a3.178,3.178,0,0,1,3.236,3.236v14.347a3.178,3.178,0,0,1-3.236,3.236H850.035a3.178,3.178,0,0,1-3.236-3.236V316.435A3.245,3.245,0,0,1,850.035,313.2Z" transform="translate(52.713 18.531)" fill="rgba(255,255,255,0.44)"/>
    <path id="Path_85" data-name="Path 85" d="M541.035,313.2h13.484a3.178,3.178,0,0,1,3.236,3.236v14.347a3.178,3.178,0,0,1-3.236,3.236H541.035a3.178,3.178,0,0,1-3.236-3.236V316.435A3.245,3.245,0,0,1,541.035,313.2Z" transform="translate(28.395 18.531)" fill="rgba(255,255,255,0.44)"/>
    <path id="Path_86" data-name="Path 86" d="M438.035,313.2h13.484a3.178,3.178,0,0,1,3.236,3.236v14.347a3.178,3.178,0,0,1-3.236,3.236H438.035a3.178,3.178,0,0,1-3.236-3.236V316.435A3.318,3.318,0,0,1,438.035,313.2Z" transform="translate(20.289 18.531)" fill="rgba(255,255,255,0.44)"/>
    <path id="Path_87" data-name="Path 87" d="M644.035,313.2h13.484a3.178,3.178,0,0,1,3.236,3.236v14.347a3.178,3.178,0,0,1-3.236,3.236H644.035a3.178,3.178,0,0,1-3.236-3.236V316.435A3.245,3.245,0,0,1,644.035,313.2Z" transform="translate(36.501 18.531)" fill="rgba(255,255,255,0.44)"/>
    <path id="Path_88" data-name="Path 88" d="M535.9,389.992a5.393,5.393,0,0,0-5.393-5.394H424.794a5.393,5.393,0,0,0-5.393,5.394V457.95a5.394,5.394,0,0,0,5.393,5.393H530.506a5.393,5.393,0,0,0,5.393-5.393Z" transform="translate(19.077 24.15)" fill="rgba(0,0,0,0.13)"/>
    <path id="Path_89" data-name="Path 89" d="M677.7,389.992a5.393,5.393,0,0,0-5.394-5.394H566.593a5.393,5.393,0,0,0-5.394,5.394V457.95a5.394,5.394,0,0,0,5.394,5.393H672.305a5.393,5.393,0,0,0,5.394-5.393Z" transform="translate(30.237 24.15)" fill="rgba(0,0,0,0.13)"/>
    <path id="Path_90" data-name="Path 90" d="M819.4,389.992a5.393,5.393,0,0,0-5.393-5.394H708.294a5.393,5.393,0,0,0-5.394,5.394V457.95a5.394,5.394,0,0,0,5.394,5.393H814.006a5.393,5.393,0,0,0,5.393-5.393Z" transform="translate(41.389 24.15)" fill="rgba(0,0,0,0.13)"/>
    <path id="Path_91" data-name="Path 91" d="M474.556,438.116A15.857,15.857,0,1,0,458.7,422.259,15.883,15.883,0,0,0,474.556,438.116Z" transform="translate(22.17 25.866)" fill="none" stroke="rgba(255,255,255,0.18)" stroke-width="6.725"/>
    <path id="Path_92" data-name="Path 92" d="M481.38,420.966a.719.719,0,0,1,0,1.294l-10.895,6.256a.79.79,0,0,1-1.187-.647V415.356a.79.79,0,0,1,1.187-.647Z" transform="translate(23.004 26.511)" fill="rgba(255,255,255,0.81)"/>
    <path id="Path_93" data-name="Path 93" d="M758.058,438.214A15.857,15.857,0,1,0,742.2,422.357,15.883,15.883,0,0,0,758.058,438.214Z" transform="translate(44.481 25.874)" fill="none" stroke="rgba(255,255,255,0.18)" stroke-width="6.725"/>
    <path id="Path_94" data-name="Path 94" d="M764.88,420.966a.719.719,0,0,1,0,1.294l-10.895,6.256a.79.79,0,0,1-1.187-.647V415.356a.79.79,0,0,1,1.187-.647Z" transform="translate(45.316 26.511)" fill="rgba(255,255,255,0.81)"/>
    <path id="Path_95" data-name="Path 95" d="M616.357,438.116A15.857,15.857,0,1,0,600.5,422.259,15.883,15.883,0,0,0,616.357,438.116Z" transform="translate(33.33 25.866)" fill="none" stroke="rgba(255,255,255,0.18)" stroke-width="6.725"/>
    <path id="Path_96" data-name="Path 96" d="M623.182,420.966a.719.719,0,0,1,0,1.294l-10.895,6.256a.79.79,0,0,1-1.187-.647V415.356a.79.79,0,0,1,1.187-.647Z" transform="translate(34.164 26.511)" fill="rgba(255,255,255,0.81)"/>
    <path id="Path_97" data-name="Path 97" d="M535.9,510.7H419.4V532.92H535.9Zm152.961,0h-116.5V532.92h116.5Zm36.351,0h116.5V532.92h-116.5Z" transform="translate(19.077 34.074)" fill="rgba(0,0,0,0.38)" fill-rule="evenodd"/>
    <path id="Path_98" data-name="Path 98" d="M355.7,531.4H921.372" transform="translate(14.064 35.704)" fill="none" stroke="rgba(0,0,0,0.63)" stroke-linecap="round" stroke-miterlimit="10" stroke-width="4"/>
    <path id="Path_99" data-name="Path 99" d="M767.214,218.8H675.2v8.953h92.013Z" transform="translate(39.209 11.102)" fill="rgba(255,255,255,0.29)"/>
    <path id="Path_100" data-name="Path 100" d="M867.013,218.8H775v8.953h92.013Z" transform="translate(47.063 11.102)" fill="rgba(255,255,255,0.29)"/>
    <path id="Path_101" data-name="Path 101" d="M467.714,218.8H375.7v8.953h92.013Z" transform="translate(15.638 11.102)" fill="rgba(255,255,255,0.29)"/>
    <path id="Path_102" data-name="Path 102" d="M567.615,218.8H475.6v8.953h92.013Z" transform="translate(23.5 11.102)" fill="rgba(255,255,255,0.29)"/>
    <path id="Path_103" data-name="Path 103" d="M667.413,218.8H575.4v8.953h92.013Z" transform="translate(31.354 11.102)" fill="rgba(255,255,255,0.29)"/>
    <path id="Path_104" data-name="Path 104" d="M868.1,422.865a45.853,45.853,0,1,0,72.913-46.135A43.157,43.157,0,0,1,868.1,422.865Zm14.244-24.054a21.58,21.58,0,0,1,42.355-5.835,23.217,23.217,0,0,0-35.02,19.968q0,1.086.1,2.147A21.521,21.521,0,0,1,882.34,398.811Z" transform="translate(54.39 23.531)" fill="rgba(21,21,21,0.2)" fill-rule="evenodd" opacity="0.89"/>
    <g id="Group_1" data-name="Group 1" transform="translate(228.443 482.217)" opacity="0.9">
      <path id="Path_105" data-name="Path 105" d="M300.18,454.579l-17.691,6.688a28.385,28.385,0,0,0-16.4,36.676l10.895,28.586-28.8,10.895a28.385,28.385,0,0,0-16.4,36.676l6.688,17.691a28.385,28.385,0,0,0,36.676,16.4l28.693-10.895,10.787,28.586a28.385,28.385,0,0,0,36.676,16.4l17.583-6.688a28.385,28.385,0,0,0,16.4-36.676L374.5,570.431l28.478-10.787a28.385,28.385,0,0,0,16.4-36.676l-6.688-17.691a28.306,28.306,0,0,0-36.676-16.4l-28.478,10.787L336.64,470.975A28.2,28.2,0,0,0,300.18,454.579Z" transform="translate(-224.279 -452.707)" fill="rgba(21,21,21,0.2)" fill-rule="evenodd" opacity="0.89"/>
      <path id="Path_106" data-name="Path 106" d="M267.749,472.534l15.21-5.717a24.4,24.4,0,0,1,31.5,14.131l41.638,109.92a24.4,24.4,0,0,1-14.131,31.5l-15.21,5.717a24.4,24.4,0,0,1-31.5-14.131l-41.638-109.92A24.4,24.4,0,0,1,267.749,472.534Z" transform="translate(-222.541 -451.725)" fill="rgba(242,242,242,0.9)" opacity="0.7"/>
      <path id="Path_107" data-name="Path 107" d="M381.76,508.243l5.717,15.21a24.4,24.4,0,0,1-14.131,31.5L263.534,596.588a24.4,24.4,0,0,1-31.5-14.131l-5.717-15.21a24.4,24.4,0,0,1,14.131-31.5l109.92-41.638A24.42,24.42,0,0,1,381.76,508.243Z" transform="translate(-224.689 -449.572)" fill="rgba(242,242,242,0.9)" opacity="0.93"/>
    </g>
    <path id="Path_108" data-name="Path 108" d="M672.872,132.089l-3.1,6.166a9.492,9.492,0,0,0,4.315,12.837l45.09,22.653a9.492,9.492,0,0,0,12.837-4.315l22.653-45.09a9.492,9.492,0,0,0-4.315-12.837l-5.519-2.773L724.9,148.5a8.555,8.555,0,0,1-11.542,3.883L672.9,132.105Z" transform="translate(38.7 2.439)" fill="rgba(21,21,21,0.2)" fill-rule="evenodd" opacity="0.89"/>
    <path id="Path_109" data-name="Path 109" d="M263.321,91.6A55.135,55.135,0,0,0,243.9,198.331V175.409a34.637,34.637,0,1,1,52.44-39.153h21.109A55.1,55.1,0,0,0,263.321,91.6Z" transform="translate(2.455 1.091)" fill="rgba(255,255,255,0.24)" fill-rule="evenodd"/>
    <path id="Path_110" data-name="Path 110" d="M700.889,78.667l40.451,20.28a8.555,8.555,0,0,1,3.883,11.542l-20.28,40.451a8.555,8.555,0,0,1-11.542,3.883l-40.451-20.28A8.555,8.555,0,0,1,669.068,123l20.28-40.451A8.555,8.555,0,0,1,700.889,78.667Z" transform="translate(38.653)" fill="rgba(255,255,255,0.19)"/>
    <path id="Path_111" data-name="Path 111" d="M903.66,431.921A32.361,32.361,0,1,0,871.3,399.56,32.318,32.318,0,0,0,903.66,431.921Z" transform="translate(54.642 22.781)" fill="none" stroke="rgba(255,255,255,0.22)" stroke-width="20"/>
    <path id="Path_112" data-name="Path 112" d="M893.253,152.262h12.38v11.3h-12.38v-11.3Zm1.162,1.161V162.4h10.057v-8.979Zm39.31.152a.58.58,0,1,0-.821-.821L928.46,157.2l-4.444-4.444a.58.58,0,1,0-.821.821l4.443,4.444-4.443,4.443a.58.58,0,0,0,.821.821l4.444-4.443,4.443,4.443a.58.58,0,0,0,.821-.821l-4.443-4.443Zm-70.1,3.648a.581.581,0,0,0,0,1.162h11.65a.581.581,0,1,0,0-1.162Zm59.976,51.82H366.888v-1.079H923.6ZM456.637,333.093a1.079,1.079,0,0,1,2.157,0v2.265h2.157a.971.971,0,1,1,0,1.942h-2.157v2.265a1.079,1.079,0,1,1-2.157,0V337.3h-2.265a.971.971,0,0,1,0-1.942h2.265Zm112.077-1.079a1.081,1.081,0,0,0-1.079,1.079v2.265H565.37a.971.971,0,1,0,0,1.942h2.265v2.265a1.079,1.079,0,1,0,2.157,0V337.3h2.265a.971.971,0,1,0,0-1.942h-2.265v-2.265A1.081,1.081,0,0,0,568.714,332.015Zm221.673,1.079a1.079,1.079,0,0,1,2.157,0v2.265H794.7a.971.971,0,0,1,0,1.942h-2.156v2.265a1.079,1.079,0,1,1-2.157,0V337.3h-2.374a.971.971,0,0,1,0-1.942h2.374Zm110.567,0a1.079,1.079,0,0,1,2.157,0v2.265h2.264a.971.971,0,1,1,0,1.942h-2.264v2.265a1.079,1.079,0,0,1-2.157,0V337.3h-2.265a.971.971,0,0,1,0-1.942h2.265ZM679.82,332.015a1.081,1.081,0,0,0-1.079,1.079v2.265h-2.265a.971.971,0,1,0,0,1.942h2.265v2.265a1.079,1.079,0,1,0,2.157,0V337.3h2.265a.971.971,0,1,0,0-1.942H680.9v-2.265A1.081,1.081,0,0,0,679.82,332.015ZM303.892,152.843H271.1V157.7h32.792Zm-9.169,8.09H271.1v4.854h23.624Zm-23.624,7.98h29.017v4.854H271.1ZM418.665,527.043H871.827v-1.079H418.665Z" transform="translate(7.406 5.865)" fill="#4a90e2" fill-rule="evenodd"/>
    <path id="Path_113" data-name="Path 113" d="M863.2,511.417H410.042v-1.079H863.2ZM380.7,378.524A27.806,27.806,0,0,1,408.532,350.8H864.714a27.737,27.737,0,0,1,27.83,27.723V546.262H380.7Zm158.245,14.13a5.393,5.393,0,0,0-5.393-5.394H427.84a5.393,5.393,0,0,0-5.393,5.394v67.958a5.393,5.393,0,0,0,5.393,5.393H533.553a5.394,5.394,0,0,0,5.393-5.393Zm152.96,0a5.393,5.393,0,0,0-5.394-5.394H580.8a5.393,5.393,0,0,0-5.393,5.394v67.958a5.394,5.394,0,0,0,5.393,5.393H686.513a5.393,5.393,0,0,0,5.394-5.393Zm147.458-5.394a5.393,5.393,0,0,1,5.394,5.394v67.958a5.394,5.394,0,0,1-5.394,5.393H733.652a5.393,5.393,0,0,1-5.393-5.393V392.654a5.393,5.393,0,0,1,5.393-5.394ZM538.946,477.116h-116.5v8.845h116.5Zm152.96,0h-116.5v8.845h116.5Zm36.352,0h116.5v8.845h-116.5ZM538.946,490.383h-116.5v8.845h116.5Zm36.46,0h116.5v8.845h-116.5Zm269.352,0h-116.5v8.845h116.5Zm-305.812,32.9h-116.5V545.5h116.5Zm152.96,0h-116.5V545.5h116.5Zm36.352,0h116.5V545.5h-116.5Z" transform="translate(16.031 21.49)" fill="rgba(255,255,255,0.44)" fill-rule="evenodd"/>
    <path id="Path_114" data-name="Path 114" d="M849.224,279.755c-7.659,41.422-16.72,63.212-34.626,74-.324.216-.539.324-.863.539-1.187.647-2.373,1.294-3.668,1.942-10.571,4.962-23.947,6.9-41.314,7.227h-5.825a126.118,126.118,0,0,1-33.224-4.746c-22.653-6.364-44.011-18.554-59.544-33.44-.431-.324-.755-.755-1.187-1.079l-.863-.863a4.991,4.991,0,0,1-.755-.755l-.216-.216a16.614,16.614,0,0,1-1.294-1.4c-.755-.755-1.51-1.618-2.157-2.373a96.7,96.7,0,0,1-6.149-7.767,67.987,67.987,0,0,1-6.364-10.679,59.024,59.024,0,0,1-4.315-11.434,44.92,44.92,0,0,1-1.618-11.866,66.143,66.143,0,0,1,.539-7.982A70.354,70.354,0,0,1,659.8,236.175c10.356-13.7,25.565-24.918,43.687-31.39,13.376-4.746,28.262-3.883,44.119-3.883C804.242,200.794,849.224,237.793,849.224,279.755Z" transform="translate(36.851 9.688)" fill="#474747"/>
    <path id="Path_115" data-name="Path 115" d="M638.634,398.074c-3.883-30.743,5.717-74.538,2.589-112.293-.324-4.1,2.589-7.767,3.128-11.542.971-6.041,2.373-9.385,3.344-14.239l126.639,33.008c-.971,30.743-10.463,105.173-18.877,111.753-6.472,5.07-73.352,25.781-101.614,25.781-6.256,0-19.956-6.364-19.2-15.857a14.835,14.835,0,0,1,2.05-6.149A16.941,16.941,0,0,0,638.634,398.074Z" transform="translate(36.014 14.344)" fill="#474747"/>
    <path id="Path_116" data-name="Path 116" d="M819.4,457.641c-18.014-16.828-13.807-96.112-6.364-133.543h-74.97l-42.609,86.835s-.431,9.385,0,19.417c.432,12.081,7.119,22.545,5.933,32.361-1.618,14.023-1.187,31.067-3.775,34.3Z" transform="translate(40.788 19.389)" fill="#474747"/>
    <path id="Path_117" data-name="Path 117" d="M619.513,333.5s11-10.463,16.181-18.554c7.119-11.218,10.14-17.043,10.14-17.043l9.061,66.124-26.967-10.356A12.949,12.949,0,0,1,619.513,333.5Z" transform="translate(34.642 17.327)" fill="#474747"/>
    <path id="Path_118" data-name="Path 118" d="M650.347,377.944c-2.373-.431-5.717-.971-9.169-1.726-2.8-.647-5.609-1.294-7.982-1.942-.216-.108-.324-.108-.539-.216a6.854,6.854,0,0,0-.755-.216,16.912,16.912,0,0,1-3.883-1.726c-4.854-2.7-1.187-11.974.647-12.3,2.157.108,3.452-4.638,2.913-7.443a2.617,2.617,0,0,1,.971-2.481l9.6,4.638.863.431,6.149,3.02.863,13.915Z" transform="translate(35.305 21.419)" fill="#474747"/>
    <path id="Path_119" data-name="Path 119" d="M652.638,369.7,635.7,404.541c.324-3.56.863-7.443.431-8.737-.755-1.942-1.294-4.638-4.746-6.8-4.854-3.02-9.169-7.227-3.236-15.318a3.577,3.577,0,0,1,1.4-.971.818.818,0,0,0,.431-.216.334.334,0,0,0,.216-.108,36.352,36.352,0,0,1,8.414-1.618c.539,0,.971-.108,1.51-.108,2.481-.216,4.962-.324,7.227-.539A37.4,37.4,0,0,0,652.638,369.7Z" transform="translate(35.279 22.977)" fill="#474747"/>
    <path id="Path_120" data-name="Path 120" d="M848.154,279.764c-7.659,41.422-16.72,63.212-34.626,74-.324.216-.539.324-.863.539,0,.324-.108.647-.108.971a14.63,14.63,0,0,0-.216,2.157L809,356.244l-35.381,1.187c.863-3.883,8.306-40.991-18.554-45.845-26.428-4.746-29.233,28.478-29.233,28.478l-19.848-8.2s3.02-30.2-16.936-36.568l6.8-17.691,6.688-17.475-43.687-24.055c10.356-13.7,25.565-24.918,43.687-31.39,13.376-4.746,28.262-3.883,44.119-3.883C803.172,200.8,848.154,237.8,848.154,279.764Z" transform="translate(37.921 9.68)" fill="#242424" fill-rule="evenodd"/>
    <path id="Path_121" data-name="Path 121" d="M645.981,291.728s-2.481-11,3.236-9.924,20.172,2.265,25.889,7.119a17.757,17.757,0,0,1,6.149,11.326s-7.767-1.834-12.621-4.638C663.025,292.484,646.628,295.4,645.981,291.728Z" transform="translate(36.867 16.054)" fill="#242424"/>
    <path id="Path_122" data-name="Path 122" d="M636.842,334.9c-.216.971,5.286,2.7,7.767,4.53,4.531,3.344,5.933,9.061-6.257,14.239,0,0,8.09-1.294,10.895-4.854S649.895,335.761,636.842,334.9Z" transform="translate(36.189 20.239)" fill="#333"/>
    <path id="Path_123" data-name="Path 123" d="M654.182,310.1c-10.787,6.041,3.236,32.037,3.236,32.037s-.431-10.356-1.618-18.014C655.26,321.1,653.858,317,654.182,310.1Z" transform="translate(37.233 18.287)" fill="#3e3e3e"/>
    <path id="Path_124" data-name="Path 124" d="M659.832,301.71c-2.913-1.294-6.472,4.423-6.472,4.423s2.913,8.845,3.02,10.787c.108,2.7-4.638,5.286-4.638,5.286s.755.971,1.618,2.05a5.09,5.09,0,0,0,6.9,1.187l12.513-8.63s-.108-5.933-3.883-10.032C668.03,305.917,662.1,302.789,659.832,301.71Z" transform="translate(37.362 17.612)" fill="#3e3e3e"/>
    <path id="Path_125" data-name="Path 125" d="M666.2,316.13c-3.883-2.7-13.16-10.032-13.16-10.032s3.452,5.178,3.56,8.414c.108,4.315-3.452,8.306-3.452,8.306S664.907,316.777,666.2,316.13Z" transform="translate(37.465 17.972)" fill="#fefefe"/>
    <path id="Path_126" data-name="Path 126" d="M659.709,316.356c.755-2.912-1.726-7.982-3.668-10.356-4.746,6.364-4.854,9.924-2.912,17.043C655.287,321.533,658.847,319.268,659.709,316.356Z" transform="translate(37.378 17.964)" fill="#333"/>
    <path id="Path_127" data-name="Path 127" d="M654.254,308c2.7,4.531,2.481,9.816-2.157,11.974C651.126,318.248,650.479,313.178,654.254,308Z" transform="translate(37.331 18.122)" fill="#1a1a1a"/>
    <path id="Path_128" data-name="Path 128" d="M656.256,303.1c-1.51,1.079-4.315,3.344-4.315,5.717l14.347,7.443.431-2.265Z" transform="translate(37.378 17.736)" fill="#3e3e3e"/>
    <path id="Path_129" data-name="Path 129" d="M652.644,322.733s-1.834-2.8-1.294-2.7,14.994-4.638,14.994-4.638l1.726,1.294Z" transform="translate(37.324 18.704)" fill="#3e3e3e"/>
    <path id="Path_130" data-name="Path 130" d="M650.864,320.641c.647-1.294,7.767-3.128,13.16-4.423-4.207-1.4-11.542-6.041-12.621-7.551a7.137,7.137,0,0,1-.647-5.07c.647,0,.539,2.7,1.726,4.423.755,1.079,8.522,5.933,14.131,7.767l2.157.755-2.265.539c-6.58,1.51-13.915,3.452-14.563,4.315a3.63,3.63,0,0,0-.647,1.834A1.985,1.985,0,0,1,650.864,320.641Z" transform="translate(37.269 17.775)" fill="#1a1a1a"/>
    <path id="Path_131" data-name="Path 131" d="M672.349,315.691s-6.769,2.11-12.212,4.44c-2.345,1-4.522,4.2-4.522,4.2s2.18,5.038,6.354,4.495S672.349,315.691,672.349,315.691Z" transform="translate(37.667 18.727)" fill="#474747"/>
    <path id="Path_132" data-name="Path 132" d="M755.652,297.6c-13.592-.431-104.31,4.207-104.31,4.207v16.5L754.466,307.85c6.149,1.079,18.769,9.061,24.594,12.944a3.685,3.685,0,0,0,5.178-1.079,7.519,7.519,0,0,0-1.942-10.248C775.716,304.721,764.606,297.926,755.652,297.6Z" transform="translate(37.331 17.301)" fill="rgba(88,88,88,0.6)"/>
    <path id="Path_133" data-name="Path 133" d="M654.19,315.322c0,17.583-2.222,31.822-5.066,31.822h-3.654c-1.51-5.5-1.413-19.956-1.413-31.822,0-8.63.525-26.1,1.414-31.822h3.652C651.968,283.5,654.19,297.739,654.19,315.322Z" transform="translate(36.758 16.194)" fill="#fff"/>
    <path id="Path_134" data-name="Path 134" d="M645.934,347.143c2.916,0,5.279-14.247,5.279-31.822S648.85,283.5,645.934,283.5s-5.28,14.247-5.28,31.822S643.018,347.143,645.934,347.143Z" transform="translate(36.49 16.194)" fill="#c4c4c4"/>
    <path id="Path_135" data-name="Path 135" d="M639.451,301.916c2.373.108,2.481-.864,3.775.646,0,4.746-.108,13.485-.755,10.249-.539-3.128-5.609-4.423-5.609-4.423S635.352,301.593,639.451,301.916Z" transform="translate(36.17 17.626)" fill="#c4c4c4"/>
    <path id="Path_136" data-name="Path 136" d="M750.274,324.622c-3.02-7.875-13.16-4.854-18.769-1.618l-.863,10.14c-2.265-2.373-3.775-12.837-1.834-18.122L739.7,306.5l13.484,1.187c2.913,3.991,12.621,12.405,7.874,24.487-2.481,6.472-13.268,17.259-21.466,21.143C744.557,347.059,753.4,332.5,750.274,324.622Z" transform="translate(43.357 18.004)" fill="#333"/>
    <path id="Path_137" data-name="Path 137" d="M748.287,323.394a13.39,13.39,0,0,0-16.5-4.1l.971,18.23-7.011,7.659,8.63,10.787,7.874-2.373,11.542-12.944C754.759,335.583,752.278,328.9,748.287,323.394Z" transform="translate(43.186 18.907)" fill="#262525"/>
    <path id="Path_138" data-name="Path 138" d="M731.947,333.544s3.668-4.638,7.119-5.286c7.874-1.618,11.542,14.994,17.691,9.924,9.277-7.659.755-23.084-14.455-24.379C724.827,312.293,731.947,333.544,731.947,333.544Z" transform="translate(43.562 18.572)" fill="#373737"/>
    <path id="Path_139" data-name="Path 139" d="M725.763,323.006l8.2,19.2c2.481-7.875-4.1-24.055-.971-33.008C723.282,314.916,725.763,323.006,725.763,323.006Z" transform="translate(43.165 18.216)" fill="#3e3e3e"/>
    <path id="Path_140" data-name="Path 140" d="M761.535,315.072c-7.982-13.052-14.67-13.807-23.839-9.924-6.58,2.8-10.571,9.6-11.218,16.72l-.216,2.481c9.924-15.533,24.7-21.682,31.067-9.708,9.493,17.691-1.079,27.4-9.924,30.1-7.659,2.373-12.836-5.933-17.8-15.749-8.306,12.621-9.277,22.976,1.942,29.88,6.688,4.1,13.484-2.481,20.064-8.306C761.751,341.392,769.626,328.232,761.535,315.072Z" transform="translate(42.99 17.736)" fill="#3e3e3e"/>
    <path id="Path_141" data-name="Path 141" d="M748.088,343.209c2.481-2.157,1.834-6.8-1.294-10.355-3.128-3.452-7.659-4.531-10.14-2.373s-1.834,6.8,1.294,10.356S745.607,345.474,748.088,343.209Z" transform="translate(43.925 19.803)" fill="#fff"/>
    <path id="Path_142" data-name="Path 142" d="M743.29,335.861a2.45,2.45,0,0,1-.216,3.56L723.549,356.9a2.522,2.522,0,0,1-3.344-3.775l19.525-17.475A2.455,2.455,0,0,1,743.29,335.861Z" transform="translate(42.681 20.245)" fill="#fff"/>
    <path id="Path_143" data-name="Path 143" d="M742.617,331.834l3.02,3.452a1.375,1.375,0,0,1-2.05,1.834l-3.02-3.452a1.375,1.375,0,0,1,2.049-1.834Z" transform="translate(44.325 19.961)" fill="#171717"/>
    <path id="Path_144" data-name="Path 144" d="M736.611,339.113s-2.265-1.294,2.265-7.227c1.294-1.618-8.09-14.886-8.09-14.886-1.079,1.187,1.726,12.944-.647,16.828s-1.4,7.659,1.4,9.708Z" transform="translate(43.427 18.83)" fill="#3e3e3e"/>
    <path id="Path_145" data-name="Path 145" d="M749.436,337.891c-1.618,1.618-5.609,7.551-10.895,4.854,0,0,3.56,4.746,7.551,4.962,7.982.431,13.376-17.906,13.376-17.906C755.692,333.469,751.054,336.273,749.436,337.891Z" transform="translate(44.194 19.837)" fill="#3e3e3e"/>
    <path id="Path_146" data-name="Path 146" d="M648.175,374.531c-1.294-.108-3.883-.431-6.9-.647-2.481-.216-11.434-.108-14.023-1.834-5.825-3.775-1.294-14.239,1.4-12.944V359c.108,0,.108,0,.108.108a13.8,13.8,0,0,0,6.8,8.845c1.834.971,3.776,1.942,5.609,2.8.539.216.971.539,1.51.755,2.373,1.187,4.423,2.157,5.5,2.7Q648.5,374.531,648.175,374.531Z" transform="translate(35.212 22.135)" fill="#383838"/>
    <path id="Path_147" data-name="Path 147" d="M643.039,376.724c.863-.647,5.07-3.128,5.07-3.128L630.094,372.3a5.448,5.448,0,0,0-1.942,1.187c-4.53,5.178-3.02,9.708-.431,12.513C627.721,385.893,639.479,379.42,643.039,376.724Z" transform="translate(35.278 23.182)" fill="#383838"/>
    <path id="Path_148" data-name="Path 148" d="M719.135,398.668l-46.492,19.956c7.011,0,44.442-10.14,50.052-15.533,3.02-2.912,6.688-15.857,8.306-21.79Z" transform="translate(39.007 23.891)" fill="#242424"/>
    <path id="Path_149" data-name="Path 149" d="M714.807,365.135c3.991,6.364,6.364,13.052,6.9,18.554s-.863,9.708-3.775,11.65c-3.02,1.942-7.335,1.294-12.081-1.618-4.746-2.8-9.708-7.767-13.7-14.239-3.991-6.364-6.364-13.052-6.9-18.554s.863-9.708,3.775-11.65c3.02-1.942,7.335-1.294,12.081,1.618A47.01,47.01,0,0,1,714.807,365.135Z" transform="translate(39.991 21.283)" fill="none" stroke="#f5f5f5" stroke-width="1"/>
    <path id="Path_150" data-name="Path 150" d="M696.245,387.534c7.551,10.787,12.189,22.113,13.592,31.606s-.431,17.043-5.5,20.6c-5.178,3.56-12.837,2.7-21.25-1.942s-17.367-12.944-24.918-23.731-12.189-22.113-13.592-31.606.431-17.043,5.5-20.6c5.178-3.56,12.836-2.7,21.25,1.942C679.633,368.441,688.694,376.747,696.245,387.534Z" transform="translate(36.762 22.188)" fill="none" stroke="#f5f5f5" stroke-width="1"/>
    <path id="Path_151" data-name="Path 151" d="M675.407,407.416c10.14,14.455,16.18,29.772,17.583,42.932,1.51,13.16-1.618,23.839-9.385,29.341s-18.877,4.746-30.743-1.079S628.592,462,618.452,447.543s-16.181-29.772-17.583-42.932c-1.51-13.16,1.618-23.839,9.385-29.341s18.877-4.746,30.743,1.079C652.754,382.174,665.267,392.961,675.407,407.416Z" transform="translate(33.33 23.122)" fill="none" stroke="#f5f5f5" stroke-width="1"/>
    <path id="Path_152" data-name="Path 152" d="M722.746,354.479a8.677,8.677,0,0,1,1.51,4.423,2.665,2.665,0,0,1-.971,2.589,2.555,2.555,0,0,1-2.7-.324,9.246,9.246,0,0,1-3.236-3.236,8.677,8.677,0,0,1-1.51-4.423,2.665,2.665,0,0,1,.971-2.589,2.555,2.555,0,0,1,2.7.324A10.225,10.225,0,0,1,722.746,354.479Z" transform="translate(42.406 21.479)" fill="none" stroke="#f5f5f5" stroke-width="1"/>
    <path id="Path_153" data-name="Path 153" d="M809.232,416.63,699.1,442.195l-.755-2.589S793.484,413.717,806.967,408C807.183,415.335,809.232,416.63,809.232,416.63Z" transform="translate(41.03 25.992)" fill="rgba(0,0,0,0.2)"/>
    <path id="Path_154" data-name="Path 154" d="M699.638,441.987a10.166,10.166,0,0,0-7.551,8.306l-5.825,41.314.016,0c-36.227,49.423-44.821,85.4-63.337,177.774H898.01c.108,0-.539-120.6-5.717-136.132C887.575,519.093,853.219,479.6,831.4,455.8a.916.916,0,0,0,.269-.439c.639-3.43-1.322-7.425-3.469-11.8-1.837-3.74-3.809-7.757-4.405-11.935-.755-4.962-.324-11.219.108-15.965a4.542,4.542,0,0,0-5.825-4.854Z" transform="translate(35.096 26.197)" fill="#8e50fb" fill-rule="evenodd"/>
    <path id="Path_155" data-name="Path 155" d="M786.839,412.626l25.242-5.609a5.252,5.252,0,0,1,6.688,5.609c-.539,5.393-.971,12.621-.108,18.338,1.51,10.356,10.356,19.956,9.061,27.183-.324,1.618-21.9,0-113.479,22.113" transform="translate(42.281 25.896)" fill="none" stroke="#ececec" stroke-linecap="round" stroke-width="1"/>
    <path id="Path_156" data-name="Path 156" d="M698.268,438.8c-2.157,0-8.414,1.51-10.14,7.551-1.834,6.041-4.315,29.341-5.286,40.236" transform="translate(39.81 28.416)" fill="none" stroke="#ececec" stroke-linecap="round" stroke-width="1"/>
    <path id="Path_157" data-name="Path 157" d="M876.892,574.58c-3.883-14.455-11.111-44.874-31.93-58.25-34.518-22.329-79.5-7.982-101.614,10.355-17.691,14.67-17.151,30.743-23.408,52.209" transform="translate(42.73 33.622)" fill="none" stroke="#ececec" stroke-linecap="round" stroke-width="1"/>
    <path id="Path_158" data-name="Path 158" d="M732.7,360.963C719,400.12,689.224,472.933,678.761,474.335c-.108.108-.216.108-.324.216-13.807,9.708-39.265-2.8-56.955-27.83s-20.819-53.288-7.012-63a17.73,17.73,0,0,1,8.414-3.128c13.376-4.746,41.854-14.778,58.9-19.632,22.761-6.58,44.55-10.463,44.55-10.463s3.776,1.726,5.07,3.775C732.912,356.433,732.7,360.963,732.7,360.963Z" transform="translate(33.751 21.466)" fill="#fff" fill-rule="evenodd" opacity="0.24"/>
  </g>
</svg>
