<svg xmlns="http://www.w3.org/2000/svg" width="532.214" height="202" viewBox="0 0 532.214 202">
  <g id="Message" transform="translate(-183 -200)">
    <path id="Path_180" data-name="Path 180" d="M363.266,402H641.283a44.16,44.16,0,0,0,44.16-44.161V322.885l28.64-21.9a2.88,2.88,0,0,0-.236-4.738l-28.4-17.544V244.161A44.16,44.16,0,0,0,641.283,200H227.161A44.16,44.16,0,0,0,183,244.161V357.839A44.16,44.16,0,0,0,227.161,402h136.1Z" transform="translate(0 0)" fill="#9013fe" fill-rule="evenodd"/>
    <path id="Path_182" data-name="Path 182" d="M42.19,0A42.19,42.19,0,1,1,0,42.19,42.19,42.19,0,0,1,42.19,0Z" transform="translate(259.811 258.81)" fill="rgba(5,3,6,0.1)"/>
    <path id="Path_181" data-name="Path 181" d="M340.822,316.558a10.228,10.228,0,1,1,10.228,10.228A10.228,10.228,0,0,1,340.822,316.558Zm-7.671,30.683a17.9,17.9,0,1,1,17.9,17.9A17.9,17.9,0,0,1,333.151,347.241Zm105.738-23.963a6.72,6.72,0,0,1,6.72-6.72h247.37a6.72,6.72,0,0,1,6.72,6.72v1.9a6.72,6.72,0,0,1-6.72,6.72H445.609a6.72,6.72,0,0,1-6.72-6.72Zm0,28.127a6.72,6.72,0,0,1,6.72-6.72H598.372a6.72,6.72,0,0,1,6.72,6.72v1.9a6.72,6.72,0,0,1-6.72,6.721H445.609a6.72,6.72,0,0,1-6.72-6.721Z" transform="translate(-49.049 -34.734)" fill="#58d0ea" fill-rule="evenodd"/>
  </g>
</svg>
