<svg xmlns="http://www.w3.org/2000/svg" width="131" height="134" viewBox="0 0 131 134">
  <path id="iconmonstr-linkedin-3" d="M103.708,0H27.292C12.221,0,0,12.5,0,27.917v78.167C0,121.5,12.221,134,27.292,134h76.417C118.784,134,131,121.5,131,106.083V27.917C131,12.5,118.784,0,103.708,0ZM43.667,106.083H27.292V44.667H43.667Zm-8.187-68.5a9.707,9.707,0,0,1-9.552-9.849,9.557,9.557,0,1,1,19.1,0A9.7,9.7,0,0,1,35.479,37.587Zm73.688,68.5H92.792V74.794c0-18.8-21.833-17.381-21.833,0v31.289H54.583V44.667H70.958v9.855c7.62-14.438,38.208-15.5,38.208,13.824Z" fill="#fff"/>
</svg>
