<svg width="24" height="24" viewBox="0 0 24 24" fill="none" xmlns="http://www.w3.org/2000/svg"><rect width="24" height="24" fill="none" rx="0" ry="0"></rect><path fill-rule="evenodd" clip-rule="evenodd" d="M4 12C4 10.8954 4.89543 10 6 10H9H18C19.1046 10 20 10.8954 20 12C20 13.1046 19.1046 14 18 14H16H6C4.89543 14 4 13.1046 4 12Z" fill="#50e3c2"></path><path fill-rule="evenodd" clip-rule="evenodd" d="M6 4C4.89543 4 4 4.89543 4 6C4 7.10457 4.89543 8 6 8H18C19.1046 8 20 7.10457 20 6C20 4.89543 19.1046 4 18 4H6ZM6 16C4.89543 16 4 16.8954 4 18C4 19.1046 4.89543 20 6 20H18C19.1046 20 20 19.1046 20 18C20 16.8954 19.1046 16 18 16H6Z" fill="#9013fe"></path><path fill-rule="evenodd" clip-rule="evenodd" d="M4 18C4 16.8954 4.89543 16 6 16H8H16H18C19.1046 16 20 16.8954 20 18C20 19.1046 19.1046 20 18 20H14H6C4.89543 20 4 19.1046 4 18Z" fill="Black" fill-opacity="0.3"></path></svg>