<svg xmlns="http://www.w3.org/2000/svg" width="399.785" height="371.356" viewBox="0 0 399.785 371.356">
  <g id="People_Working_On_Computer" data-name="People Working On Computer" transform="translate(-308 -100)">
    <path id="Path_209" data-name="Path 209" d="M482.995,194.741c-7.562-4.178-57.616-.193-57.616-.193,7.813,4.929,13.68,46.226,17.414,82.979,2.347-6.1,4.837-12.391,7.247-18.387,6.4-15.9,12.227-29.684,13.3-32.2.114-.272.172-.415.172-.415a.04.04,0,0,0,.007-.01.032.032,0,0,1,.007-.011,15.387,15.387,0,0,1,2.011-3.105c5.566-7.039,13.815-12.384,22.35-15.654C486.007,200.293,484.318,195.471,482.995,194.741Zm39.35,16.291a1.427,1.427,0,0,0-1.824.859,9.083,9.083,0,0,1-6.01,4.922,17.7,17.7,0,0,1-8.106.272c-.551-.093-1.081-.193-1.589-.307a15.783,15.783,0,0,1-6.4-2.741,1.425,1.425,0,1,0-1.782,2.225,20.216,20.216,0,0,0,9.308,3.635,25.758,25.758,0,0,0,4.185.365c10.3,0,13.05-7.326,13.079-7.412A1.417,1.417,0,0,0,522.345,211.032ZM606.3,324.811h57.9l-9.029-5.924H641.742l-1.782-14.13-1.238-9.787-3.648-28.948H617.938l3.642,28.869.007.079.923,7.311.315,2.476,1.223,9.715.558,4.415H606.061Zm30.678,133.87L625.751,413.02H599.408l14.065,52.586-3.592,1.059,1.431,9.479,7.9-1.194,11.6-1.76,12.778-1.932-2.69-13.736ZM584.705,413.02l11.684,47.506,3.921-1.159L603,473.1l-12.778,1.932-11.6,1.753-7.9,1.2-1.43-9.473,3.591-1.059L558.319,413.02ZM473.38,300.922l-13.823-3.312,11.19-29ZM392.9,279.358a76.276,76.276,0,0,0,12.692-.887c1.553.486,3.019,14.738,2.139,26.286a58.346,58.346,0,0,1-.751,6.081c-.086.479-.186.944-.286,1.388-.079.357-.165.708-.251,1.044-.722,2.755-24.211,3.155-24.518.007a.413.413,0,0,0-.114-.2.907.907,0,0,1-.087-.119c-.05-.235-.093-.472-.135-.707h0c-.085-.465-.172-.93-.25-1.395q-.5-3.027-.751-6.1c-.051-.48-.086-.959-.108-1.445a20.261,20.261,0,0,1-6.625-8.829c-.587-1.581-2.368-6.54-.322-8.708,1.467-1.552,4.651-1.946,7.8-.486.143-1.044.322-2.1.515-3.155l.809-3.306A89.767,89.767,0,0,0,392.9,279.358Z" transform="translate(-16.614 -23.885)" fill="#6954ff" fill-rule="evenodd"/>
    <path id="Path_210" data-name="Path 210" d="M554.083,183.4c.466,2.8-.908,4.314-2.625,4.493-3.47.372-4.415-2.948-4.557-3.1Z" transform="translate(-61.466 -21.458)" fill="#fff"/>
    <path id="Path_211" data-name="Path 211" d="M569.542,152.506a.058.058,0,0,1-.018,0,.047.047,0,0,0-.018,0,4.128,4.128,0,0,0-.423-.022h-.007c-1.667.186-3.506,3.148-3.334,5.144,0,0-.043.022-.129.057a6.451,6.451,0,0,1-2.218.53c-1.374.051-2.8-.608-2.519-3.649.472-5.015-5.252-14.839-6.568-17.013-2.4.2-4.622.6-6.954,1.023a40.921,40.921,0,0,0-6.378,1.6,33.092,33.092,0,0,1-4.232,1.146c-1.245.25-2.826.565-4.6.815a33.122,33.122,0,0,1-8.385.215,22.575,22.575,0,0,0-.315,3.8v3.484h-.093a5.18,5.18,0,0,0-3.07,1.016,6.664,6.664,0,0,0-2.619,5.409c0,3.549,2.547,6.424,5.688,6.424h.093v5.23c0,9.265,5.195,16.77,14.459,16.77h8.078a19.5,19.5,0,0,0,7.247-1.381,80.237,80.237,0,0,1-9.966,6.7c-1.76.916-3.234,1.409-3.878.966v6.583a6.277,6.277,0,0,0,2.762,5.2c.508.114,1.038.215,1.588.307a17.711,17.711,0,0,0,8.107-.272,6.273,6.273,0,0,0,2.819-5.237V182.462a19.627,19.627,0,0,0,10.953-17.614v-.823a5.221,5.221,0,0,0,3.427,1.3c3.141,0,5.688-2.876,5.688-6.424C574.729,155.547,572.446,152.792,569.542,152.506Zm-40.095,5.444a1.326,1.326,0,0,1-.63-.157,1.351,1.351,0,0,1,.179-2.475,1.178,1.178,0,0,1,.451-.085,1.359,1.359,0,1,1,0,2.718Zm4.6-5.237a9.922,9.922,0,0,0-3.756-.5c-.157,0-.315,0-.48.007-.252,0-.516.013-.794.027h0l-.043,0c-.35.022-.68.057-.98.1a4.941,4.941,0,0,0-2.769,1.18,1.43,1.43,0,0,1-1.095.508,1.386,1.386,0,0,1-.687-.179,1.029,1.029,0,0,1-.258-.172,1.467,1.467,0,0,1-.157-2.06,3.545,3.545,0,0,1,.415-.408,7.047,7.047,0,0,1,1.967-1.152,10.6,10.6,0,0,1,3.405-.716c.844-.05,1.589-.05,2.254-.028a9.978,9.978,0,0,1,4.407.866,1.451,1.451,0,1,1-1.431,2.525Zm3.82,14.538a2.594,2.594,0,0,1-1.8-.6c-1-.9-.818-2.5-.717-3.368l0-.016a44.369,44.369,0,0,1,3-11.054.483.483,0,0,1,.63-.272.494.494,0,0,1,.272.629,43.532,43.532,0,0,0-2.94,10.811c-.122,1.03-.157,2.046.4,2.554.887.794,3,.057,4-.443a.482.482,0,1,1,.437.859A8.2,8.2,0,0,1,537.868,167.252Zm1.51,5.746,7.183-1.4c.466,2.8-.908,4.314-2.625,4.493a4.258,4.258,0,0,1-4.461-2.9A1.144,1.144,0,0,0,539.378,173Zm8.943-16.406a1.359,1.359,0,1,1,1.359,1.359A1.359,1.359,0,0,1,548.321,156.591Zm8.765-2.919a1.449,1.449,0,0,1-2.025-.15h0a5.637,5.637,0,0,0-3.741-1.273c-3.67-.2-5.1.479-5.115.486a1.439,1.439,0,0,1-1.961-.558,1.469,1.469,0,0,1,.573-1.989c.322-.186,2.168-1.081,6.661-.838,3.942.215,5.61,2.068,5.788,2.276A1.452,1.452,0,0,1,557.086,153.673Zm103.068,136.86-.315-2.475c-1-.435-1.989-.887-2.975-1.335h0c-4.955-2.253-9.727-4.422-13.63-3.945a46.385,46.385,0,0,1-.286,7.756c-.057.422-.122.844-.2,1.251-.008.043-.014.086-.022.122a13.028,13.028,0,0,1-.758,2.583l-.043.107a4.99,4.99,0,0,1-.973,1.5l.082.041.147.067a42.178,42.178,0,0,0,5.674,2.175c1.51.451,8.1,1.2,14.525,1.867Zm8.336,170.572-.344-2.139-11.6,1.76.83,3.413c.3.068.627.177.959.287l.251.082.121.039a2.537,2.537,0,0,1,.8.7h0c1.25,1.364,3.5,3.818,8.557-.517.285-.246.252-.945.218-1.685A3.623,3.623,0,0,1,668.489,461.105Zm-52.543,1.459,11.6-1.753.344,2.14a3.631,3.631,0,0,0-.209,1.932c.034.743.066,1.448-.22,1.7-5.06,4.337-7.31,1.877-8.559.51a2.556,2.556,0,0,0-.8-.7c-.1-.032-.2-.065-.3-.1h0a9.652,9.652,0,0,0-1.029-.3ZM542,286.333l7.834,1.975a15.28,15.28,0,0,1,.794,2.225,7.258,7.258,0,0,1,.286,3.012,2.45,2.45,0,0,1-.371,1l-1.224-.043s.129.415.25.994c.236,1.166.423,2.983-.6,3.327-1.524.508-1.194,1.538-1.194,1.538a1.84,1.84,0,0,1-.208,1.41,5.082,5.082,0,0,1-2.911,2.1.664.664,0,0,1-.122.05s.022.114.05.3c.143.93.386,3.691-1.638,3.384-.609-.093-1.779-.143-3.271-.206-4.482-.19-11.872-.5-15.753-2.484l-.723-.093c.014-.193.036-.4.057-.6.037-.362.075-.735.114-1.117.044-.435.091-.881.136-1.33.05-.568.107-1.144.163-1.72l0-.011c.165-1.632.324-3.277.466-4.742l.035-.359c.193-2,.351-3.627.423-4.407a.191.191,0,0,0,.007-.057l.429.057,1.023.136.486-.136,15.268-4.25Z" transform="translate(-53.944 -9.66)" fill="#77562f" fill-rule="evenodd"/>
    <path id="Path_212" data-name="Path 212" d="M501.421,346.542h57.916a69.152,69.152,0,0,1-8.292-3.012H501.134A7.272,7.272,0,0,1,501.421,346.542Zm126.372-3.012h36.059l31.781,27.452H668.373a.354.354,0,0,0-.357-.358H325.282l31.373-27.094h11.762q.247,3.069.752,6.1c-7.083.723-11.805,2.025-11.805,3.513a.869.869,0,0,1,0,1.416c0,2.275,11.061,4.121,24.7,4.121s24.7-1.846,24.7-4.121a.87.87,0,0,1,0-1.416c0-1.5-4.787-2.812-11.948-3.527a58.355,58.355,0,0,0,.751-6.081h25.363c-.522,1.745-.951,3.3-1.259,4.622-.515,2.2,4.88,4.207,12.442,5.909.608.136,1.237.272,1.875.408,5.2,1.088,11.211,2.032,16.949,2.819,11.441,1.56,21.808,2.461,22.573,2.461.032-.327.069-.676.108-1.044q.045-.429.093-.888l.722.093c3.881,1.98,11.272,2.294,15.753,2.484,1.492.063,2.662.113,3.272.206,2.025.307,1.781-2.454,1.638-3.384h88.251v-2.447l-5.359-4.629c4.57.59,8.3,1,9.409,1.116h0l.328.036a10.624,10.624,0,0,0,1.159.057c1.095,0,2.039-.822,2.805-2.146a42.122,42.122,0,0,0,5.674,2.175c1.509.451,8.1,1.2,14.524,1.867l.558,4.415H593.894l.244,5.924h57.9l-9.029-5.924H629.574Zm-35.323,3.956a13.135,13.135,0,0,0,.758-2.583A18.97,18.97,0,0,1,592.47,347.486ZM475.536,343.53h1.509l-.486.136Z" transform="translate(-4.446 -62.657)" fill="#f4f1ec" fill-rule="evenodd"/>
    <path id="Path_213" data-name="Path 213" d="M512.248,308.707h33.92l.522-9.788h-4.636L546,281.177l2.153-9.688,6.546-29.441c-2.465-5.037-8.586-15.438-9.6-17.165h0l-.02-.034c-.079-.136-.122-.207-.122-.207a20.147,20.147,0,0,0-5.258-5.766c-2.3-1.76-12.527-6.854-23.417-9.4v6.053a6.273,6.273,0,0,1-2.819,5.237,9.08,9.08,0,0,0,6.009-4.922,1.425,1.425,0,0,1,2.683.958c-.029.086-2.776,7.412-13.079,7.412a25.767,25.767,0,0,1-4.185-.365,20.216,20.216,0,0,1-9.308-3.635,1.425,1.425,0,1,1,1.781-2.225,15.787,15.787,0,0,0,6.4,2.741,6.276,6.276,0,0,1-2.762-5.2v-7.341a56.444,56.444,0,0,0-14.166,3.506c-8.535,3.27-16.785,8.615-22.351,15.654a15.454,15.454,0,0,0-2.011,3.105.044.044,0,0,0-.007.011.068.068,0,0,1-.007.01s-.057.143-.172.415c-1.073,2.519-6.9,16.305-13.3,32.2-2.411,6-4.9,12.284-7.247,18.387-1.087,2.8-2.132,5.573-3.134,8.249-2.719,7.29-5.051,13.937-6.569,18.982-.522,1.745-.951,3.3-1.259,4.622-.515,2.2,4.88,4.207,12.442,5.909.608.136,1.237.272,1.875.408,5.2,1.088,11.211,2.032,16.949,2.819,11.441,1.56,21.807,2.461,22.573,2.461.032-.325.068-.671.107-1.037v-.006c.03-.285.061-.582.092-.889.015-.193.036-.4.058-.6.036-.362.075-.736.114-1.118.045-.434.09-.879.136-1.329.05-.569.106-1.145.163-1.722h0v-.009c.166-1.635.325-3.282.467-4.749l.034-.353c.193-2,.351-3.627.422-4.406a.194.194,0,0,0,.006-.028.23.23,0,0,0,0-.03l.429.058h1.509l15.268-4.25.193.05,7.834,1.975A15.22,15.22,0,0,1,512.248,308.707ZM458.5,301.56l11.19-29,2.633,32.31Zm152.987-2.64,5.394-28.947,3.642,28.869Zm18.687,180.268s21.392,8.049,34.264,10.453c3.47.644,2.54,7.706,2.54,7.706l-40.481-.322a18.023,18.023,0,0,1-.114,2.168l-48.573-.386a1.582,1.582,0,0,1-1.574-1.367c-.387-2.8-1.059-10.41,1.052-13.086.229-.286.629-.293,1.1-.193a9.686,9.686,0,0,1,1.029.3h0l.3.1a2.556,2.556,0,0,1,.8.7c1.249,1.367,3.5,3.827,8.559-.511.286-.247.254-.951.22-1.695a3.635,3.635,0,0,1,.209-1.933c.01-.016.02-.032.031-.047a.563.563,0,0,1,.04-.046s14.524,5.459,26.837,8.722c-.014-2.826.307-5.781,1.467-7.247.229-.287.629-.293,1.1-.193.3.068.628.177.959.286l.372.122a2.544,2.544,0,0,1,.8.7c1.249,1.364,3.5,3.818,8.556-.517.285-.246.253-.945.218-1.685a3.622,3.622,0,0,1,.212-1.942A.47.47,0,0,1,630.177,479.187ZM553.258,303c1.717,1.932,4.837,3.907,8.9,5.7a69.169,69.169,0,0,0,8.292,3.012h14.473l4.171,3.6c4.568.59,8.293.995,9.407,1.116h0l.329.036a10.617,10.617,0,0,0,1.159.057c1.095,0,2.039-.822,2.805-2.146-.151-.065-.229-.108-.229-.108a5,5,0,0,0,.973-1.5l.043-.107a18.875,18.875,0,0,0,.758-2.583c.007-.036.015-.079.022-.122.079-.408.143-.83.2-1.251a46.3,46.3,0,0,0,.286-7.756,18.611,18.611,0,0,0-.336-2.031H551.9Zm-44.072,16.942h85.269v2.447H506.2c-.029-.186-.05-.3-.05-.3a.654.654,0,0,0,.121-.05A5.084,5.084,0,0,0,509.186,319.947Zm-140.345-.923c2.01,1.939,12.141,3.413,24.333,3.413s22.322-1.474,24.333-3.413a.987.987,0,0,1,.365.708c0,2.275-11.054,4.121-24.7,4.121s-24.7-1.846-24.7-4.121A.985.985,0,0,1,368.841,319.024Z" transform="translate(-15.56 -27.835)" fill="#161f40" fill-rule="evenodd"/>
    <path id="Path_214" data-name="Path 214" d="M435.072,286.37l-14.281-91.228c7.813,4.929,13.68,46.226,17.414,82.979C437.118,280.925,436.073,283.694,435.072,286.37Zm72.9,169.163V413.615H492.694v41.919c-18.022,2.275-31.616,12.478-31.616,24.726h78.507C539.586,468.018,526,457.816,507.97,455.533Zm162.295-41.919H652.958V478.3h17.307Zm-298.218,0H360.428V478.3h11.619Zm-17.307,0h4.972V478.3H354.74Z" transform="translate(-12.026 -24.479)" fill="#e6e7e8" fill-rule="evenodd"/>
    <path id="Path_215" data-name="Path 215" d="M526.509,116.088a9.888,9.888,0,0,0-6.854-6.3,10.723,10.723,0,0,0-4.815-.042c1.524-1.374,2.54-2.833,2.4-4.222-.315-3.248-7-6.6-12.235-5.187-6.006,1.622-8.154,6.139-9.216,8.372-.4.85-.651,1.37-.893,1.272s-.138-.534.024-1.2a6.677,6.677,0,0,0-1.4-6.774c-2.1-2.261-7.155-2.047-10.2.186-3.35,2.461-4.144,7.305-4.593,10.042-.2,1.227-.333,2.031-.594,2.006-.195-.018-.221-.467-.261-1.149a8.372,8.372,0,0,0-1.407-4.782c-2.132-2.747-7.391-3.956-10.753-1.674-3.531,2.4-2.971,7.637-2.605,11.052l.008.074.005.044c.238,2.138.816,7.3,4.674,10.988,1.424,2.44,4.364,7.784,5.552,12.2a5.18,5.18,0,0,1,3.07-1.016h.093v-3.484a22.571,22.571,0,0,1,.315-3.8,33.124,33.124,0,0,0,8.385-.215c1.774-.25,3.356-.565,4.6-.815a33.1,33.1,0,0,0,4.232-1.146,40.919,40.919,0,0,1,6.378-1.6c2.332-.422,4.55-.822,6.954-1.023,1.316,2.175,7.04,12,6.568,17.013-.286,3.041,1.145,3.7,2.519,3.649a6.451,6.451,0,0,0,2.218-.53c.086-.036.129-.057.129-.057-.172-2,1.667-4.958,3.334-5.144h.007a1.42,1.42,0,0,1,.423.022.048.048,0,0,1,.018,0,.058.058,0,0,0,.018,0c1.266,0,5.172-13.143.443-15.583A10.728,10.728,0,0,0,526.509,116.088ZM489.1,142.51a1.46,1.46,0,0,0-.551-1.982,9.978,9.978,0,0,0-4.407-.866c-.665-.022-1.41-.022-2.254.028a10.6,10.6,0,0,0-3.405.716,7.047,7.047,0,0,0-1.967,1.152,3.54,3.54,0,0,0-.415.408,1.467,1.467,0,0,0,.157,2.06,1.027,1.027,0,0,0,.258.172,1.386,1.386,0,0,0,.687.179,1.43,1.43,0,0,0,1.095-.508,4.94,4.94,0,0,1,2.769-1.18c.3-.043.629-.079.98-.1l.043,0c.278-.013.542-.027.795-.027.164-.007.322-.007.479-.007a9.922,9.922,0,0,1,3.756.5A1.452,1.452,0,0,0,489.1,142.51Zm15.446-2.819c-4.493-.243-6.339.651-6.661.838a1.469,1.469,0,0,0-.573,1.989,1.439,1.439,0,0,0,1.96.558c.015-.007,1.445-.687,5.116-.486a5.639,5.639,0,0,1,3.741,1.273h0a1.454,1.454,0,0,0,2.2-1.9C510.153,141.758,508.486,139.906,504.544,139.691ZM689.669,389.136v81.476H670.938V389.136h-.715v82.192h20.162V389.136ZM492.452,180.35v-5.53h6.6a19.5,19.5,0,0,0,7.247-1.381,80.237,80.237,0,0,1-9.966,6.7c-1.76.916-3.234,1.409-3.878.966Zm11.655-33.419a1.359,1.359,0,1,0-1.359,1.359A1.358,1.358,0,0,0,504.107,146.931Zm-10.324,8.9a.482.482,0,1,1,.437.859,8.2,8.2,0,0,1-3.284.9,2.594,2.594,0,0,1-1.8-.6c-1-.9-.818-2.5-.717-3.368l0-.016a44.373,44.373,0,0,1,3-11.054.483.483,0,0,1,.63-.272.5.5,0,0,1,.272.629,43.53,43.53,0,0,0-2.94,10.811c-.122,1.03-.157,2.046.4,2.554C490.671,157.069,492.789,156.333,493.783,155.832Zm-11.719-10.174a1.176,1.176,0,0,1,.451-.085,1.359,1.359,0,0,1,0,2.718,1.354,1.354,0,0,1-.451-2.633ZM354.7,470.612V389.136h.716v82.192H335.252V389.136h.715v81.476Z" transform="translate(-7.012 0)" fill="#231f20" fill-rule="evenodd"/>
    <path id="Path_216" data-name="Path 216" d="M593.256,298.375H530.8l3.942-17.743,2.153-9.688,6.546-29.441,7.877-35.436H695.789l-20.512,92.309H626.411l-3.649-28.948H605.627l-5.394,28.948Zm6.976,0,9.036-.079.007.079Zm67.64,37.6H324.723V415.71H695.488V374.628H379.513a.364.364,0,0,1-.358-.358.359.359,0,0,1,.358-.358H695.488v-38.3H668.229A.358.358,0,0,1,667.872,335.972ZM583.2,319.4l-5.359-4.629-4.171-3.6H501.276a2.439,2.439,0,0,1-.372,1l-1.223-.043s.129.415.25.994c.236,1.166.423,2.983-.6,3.327-1.524.508-1.2,1.538-1.2,1.538a1.838,1.838,0,0,1-.207,1.41Zm-176.948-.923c-2.011,1.939-12.134,3.413-24.333,3.413s-22.322-1.474-24.333-3.413a.985.985,0,0,1-.365-.708c0-1.488,4.722-2.79,11.8-3.513.079.465.165.93.251,1.395h0c.042.236.085.472.136.708a.838.838,0,0,0,.087.119.417.417,0,0,1,.113.2c.308,3.148,23.8,2.747,24.519-.007.085-.336.172-.687.25-1.044.1-.444.2-.909.286-1.388,7.162.715,11.948,2.031,11.948,3.527A.982.982,0,0,1,406.249,318.479Z" transform="translate(-4.303 -27.289)" fill="#10bce0" fill-rule="evenodd"/>
    <path id="Path_217" data-name="Path 217" d="M730.585,432.057H398.369a.359.359,0,0,0-.358.358.364.364,0,0,0,.358.358H730.585a.364.364,0,0,0,.358-.358A.359.359,0,0,0,730.585,432.057Z" transform="translate(-23.159 -85.434)" fill="#939598"/>
    <path id="Path_218" data-name="Path 218" d="M695.364,488.334H324.6a.359.359,0,0,0-.358.357.364.364,0,0,0,.358.358H695.364a.359.359,0,0,0,.358-.358A.354.354,0,0,0,695.364,488.334Z" transform="translate(-4.179 -99.913)" fill="#939598"/>
    <path id="Path_219" data-name="Path 219" d="M430.365,380.725h233.2a.358.358,0,0,0,.357-.357.354.354,0,0,0-.357-.358H308.358a.354.354,0,0,0-.358.358.358.358,0,0,0,.358.357H430.365Z" transform="translate(0 -72.043)" fill="#939598"/>
  </g>
</svg>
