<svg xmlns="http://www.w3.org/2000/svg" width="452.065" height="445.159" viewBox="0 0 452.065 445.159">
  <g id="Team" transform="translate(-221 -37)">
    <path id="Path_222" data-name="Path 222" d="M684.257,473.01,443.648,325.3V93.547L455.509,91,694.423,236.164V461.125Z" transform="translate(-50.319 -12.204)" fill="#9013fe"/>
    <g id="Group_4" data-name="Group 4" transform="translate(393.329 78.796)" opacity="0.5">
      <path id="Path_223" data-name="Path 223" d="M443.648,325.3,684.257,473.01l10.166-11.885V236.164L455.509,91l-11.862,2.547Z" transform="translate(-443.648 -91)" fill="#b7cffd"/>
      <path id="Path_224" data-name="Path 224" d="M684.609,473.463V240.012L444,94V325.753Z" transform="translate(-443.728 -91.678)" fill="#4b5361"/>
    </g>
    <path id="Path_225" data-name="Path 225" d="M581.01,379.611a95.965,95.965,0,0,1-2.222-20.332,184.26,184.26,0,0,1,1.168-22.27L634.017,370.9Z" transform="translate(-80.861 -67.803)" fill="#6b81ac"/>
    <path id="Path_226" data-name="Path 226" d="M587.938,408.869l46.728-28.078-53.006,8.714A102.9,102.9,0,0,0,587.938,408.869Z" transform="translate(-81.51 -77.698)" fill="#b6c7e5"/>
    <path id="Path_227" data-name="Path 227" d="M623.7,283.218a41.258,41.258,0,0,1,10.659,1.433v74.089L580.3,324.851C583.758,296.718,595.535,283.218,623.7,283.218Z" transform="translate(-81.202 -55.646)" fill="#b7cffd"/>
    <path id="Path_228" data-name="Path 228" d="M693.665,373.681c0,43.314-11.725,60.031-46.508,60.031-23.759,0-45.8-20-57.386-46.475L636.5,359.157V285.068C667.079,293.226,693.665,334.828,693.665,373.681Z" transform="translate(-83.343 -56.064)" fill="#fff"/>
    <path id="Path_229" data-name="Path 229" d="M536.154,373.95,542.1,376.5V229.59l-5.944-2.547V373.95Z" transform="translate(-71.226 -42.95)" fill="#f0efec"/>
    <path id="Path_230" data-name="Path 230" d="M516.406,375.241l5.944,2.547v-82.37l-5.944-2.547v82.37Z" transform="translate(-66.762 -57.827)" fill="#f0efec"/>
    <path id="Path_231" data-name="Path 231" d="M476.909,334.678l5.944,2.548V236.173l-5.944-2.547V334.678Z" transform="translate(-57.836 -44.438)" fill="#f0efec"/>
    <path id="Path_232" data-name="Path 232" d="M496.657,346.777l5.944,2.547V229.59l-5.944-2.547V346.777Z" transform="translate(-62.299 -42.95)" fill="#f0efec"/>
    <path id="Path_233" data-name="Path 233" d="M536.154,400.978l5.944,2.547V349.178l-5.944-2.547Z" transform="translate(-71.226 -69.977)" fill="#b7cffd"/>
    <path id="Path_234" data-name="Path 234" d="M516.406,391.358l5.944,2.547V366.732l-5.944-2.547Z" transform="translate(-66.762 -73.945)" fill="#b7cffd"/>
    <path id="Path_235" data-name="Path 235" d="M476.909,348.315l5.944,2.547V296.515l-5.944-2.547Z" transform="translate(-57.836 -58.075)" fill="#b7cffd"/>
    <path id="Path_236" data-name="Path 236" d="M496.657,361.158l5.944,2.548V293.224l-5.944-2.547Z" transform="translate(-62.299 -57.332)" fill="#b7cffd"/>
    <path id="Path_237" data-name="Path 237" d="M749.192,385.985a47.913,47.913,0,0,1,12.146,1.767,21.874,21.874,0,0,1,11.705,18.331c.221,5.963-3.755,11.263-3.975,14.134-.177,2.3,1.252,15.385,1.988,21.643-1.944,1.766-22.159.736-32.023,0-.663-2.209,2.135-38.913,2.135-42.006s-11.411-7.244-11.411-8.127c0-.707,3.828-6.625,5.742-9.5A32.677,32.677,0,0,0,749.192,385.985Z" transform="translate(-114.98 -78.023)" fill="#c4c4c4"/>
    <path id="Path_238" data-name="Path 238" d="M749.192,385.985a47.913,47.913,0,0,1,12.146,1.767,21.874,21.874,0,0,1,11.705,18.331c.221,5.963-3.755,11.263-3.975,14.134-.177,2.3,1.252,15.385,1.988,21.643-1.944,1.766-22.159.736-32.023,0-.663-2.209,2.135-38.913,2.135-42.006s-11.411-7.244-11.411-8.127c0-.707,3.828-6.625,5.742-9.5A32.677,32.677,0,0,0,749.192,385.985Z" transform="translate(-114.98 -78.023)" fill="rgba(0,0,0,0.1)"/>
    <path id="Path_239" data-name="Path 239" d="M792.307,598.347c1.943,1.237,4.786-.515,5.963-1.546,2.209,4.416,1.7,3.8,1.7,5.572s-10.976,6.906-13.847,6.244-5.465-3.9-.883-4.749A9.639,9.639,0,0,0,792.307,598.347Z" transform="translate(-126.956 -126.516)" fill="#4b5361"/>
    <path id="Path_240" data-name="Path 240" d="M742.048,607.133c1.06-.353,1.548-3.924.774-6.633a13.122,13.122,0,0,1-7.74,0c-1.548.774-5.8,2.709-10.3,2-2.467-.391-1.635,4.638,2.177,4.638C730.438,607.133,740.723,607.575,742.048,607.133Z" transform="translate(-113.538 -127.352)" fill="#4b5361"/>
    <path id="Path_241" data-name="Path 241" d="M752.707,366.057c.707-.177,2.65-5.649,5.08-6.184,8.834-1.944,9.57,4.719,8.834,8.293,2.482-.49,1.663,3.916.663,4.517-1.1.663-1.767,3.533-2.43,4.416s-.441,1.767-.441,5.3c-.884,4.2-5.3,3.092-6.184,2.65s-1.988-.441-1.766-5.3-3.755-4.638-4.859-6.183.221-3.313.663-3.755,1.546-1.546.442-1.988S751.824,366.277,752.707,366.057Z" transform="translate(-119.821 -72.891)" fill="#edc7c5"/>
    <path id="Path_242" data-name="Path 242" d="M725.123,379.729c3-1.06,3.87-3.87,4.257-6.966-1.74-.29-6.966-1.757-9.288-3.87-1.935-1.42-7.788-16.255-8.514-17.8-1.195-2.544.325-3.495.325-7.47s-1.1-4.914-1.873-6.463-3.648-5.8-4.644-4.256,1.935,6.579,1,8.514c-.9,1.857-1.206.258-1.919-1.936,0,0-.9-2.322-2.56-2.322-1.024.715.632,1.337.87,2.832.148.932.9,1.937,1.18,3.41.511,2.659.511,3.82,2.43,6.916.906,1.464,2.923,12.076,7.518,22.059C715.448,375.74,723.807,380.194,725.123,379.729Z" transform="translate(-108.61 -66.799)" fill="#edc7c5"/>
    <path id="Path_243" data-name="Path 243" d="M759.842,429.384c4.594,2.474,8.539-4.27,9.938-7.951-.957,0-4.385.962-6.074,0-1.876-1.069-11.594-17.005-13.361-18.331s-1.546-7.509-1.988-9.054-3.753-1.546-5.3-1.546h0c-1.546,0-3.313,2.208-3.313,3.092s2.209.442,2.872,2.65a9.142,9.142,0,0,0,2.65,4.2h0C746.149,403.324,754.1,426.292,759.842,429.384Z" transform="translate(-117.237 -80.344)" fill="#edc7c5"/>
    <path id="Path_244" data-name="Path 244" d="M754.18,351.93c1.59-2.473,4.2-.441,5.3.884,2.65-.295,8.922.309,12.809,5.079,4.858,5.964-.479,13.928-3.742,16.122-3.1,2.087-4.871,2.65-4.871,1.546s2.208-3.975,2.429-4.416,1.546-3.755,1.325-4.2-1.988-1.325-1.988.442-1.325,4.638-1.767,6.625-7.288,2.43-10.821,1.546-3.313-5.079-2.43-7.067,5.08-1.988,7.73,0,3.533.441,4.638-1.1,0-3.755-1.1-4.638-.221-3.755-1.1-3.755-3.533.442-5.079,0S752.193,355.022,754.18,351.93Z" transform="translate(-119.527 -70.912)" fill="#4b5361"/>
    <path id="Path_245" data-name="Path 245" d="M251.76,490.285v-26.67h5.966v26.67a34.414,34.414,0,0,1,23.512,9.826H230.5A40.4,40.4,0,0,1,251.76,490.285Z" transform="translate(-2.147 -96.416)" fill="#4b5361"/>
    <path id="Path_246" data-name="Path 246" d="M222.943,424.762c-5.053-12.352.936-43.749,4.562-57.9,2.105-4.211,6.667-5.194,8.071,24.565,1.755,37.2,66.325,10.528,47.024,37.9S229.259,440.2,222.943,424.762Z" transform="translate(0 -74.057)" fill="#b7cffd"/>
    <path id="Path_247" data-name="Path 247" d="M391.282,505.6l-12.634-9.826c0-5.9,4.913-8.3,7.37-8.773,2.339,1.4,8.211,3.65,12.984,1.4a11.648,11.648,0,0,1,10.528,0Z" transform="translate(-35.629 -101.701)" fill="#c3b7b6"/>
    <path id="Path_248" data-name="Path 248" d="M240.807,428.266,267.623,413.5c13.785,1.052,41.733,11.649,45.666,12.771s30.246,27.03,46.827,41.409c-3.483,15.48-14.706,17.028-14.706,17.028s-7-7.315-14.706-14.706c-18.222-20.473-15.864-17.187-26.564-28.409C249.54,446.362,239.168,434.7,240.807,428.266Z" transform="translate(-4.44 -85.09)" fill="#ee7e79"/>
    <path id="Path_249" data-name="Path 249" d="M266.636,332.544c-2.246.561-7.849-.649-9.136-1.7,2.709-3.1,5.418-11.841,5.418-21.672,0-7.4,12.921-7.74,15.649-3.649.562.842.234,3.86,0,5.264.936,1.872,2.525,5.273,1.755,5.615-1.149.51-1.149.381-1.755,1.053-.556.618-.241,2.769-.943,4.875-1.4,3.86-6.076.038-7.479,1.091C269.022,324.261,267.337,329.853,266.636,332.544Z" transform="translate(-8.249 -60.095)" fill="#8a6564"/>
    <path id="Path_250" data-name="Path 250" d="M366.816,382.627c-.561-1.122-12.4-4.211-18.248-5.615-1.053-.255-2.106,3.509-1.755,4.913s4.913,1.755,9.124,3.158S367.518,384.031,366.816,382.627Z" transform="translate(-28.419 -76.841)" fill="#8a6564"/>
    <path id="Path_251" data-name="Path 251" d="M583.787,213.127c.981,5.069,5.212,5.418,10.449,5.418l1.161,8.9a125.962,125.962,0,0,0-13.932,1.161c-3.483.387-5.031-1.5-5.031-7.74,0-7.2-1.548-15.867,3.483-15.867C583.787,205,582.857,208.321,583.787,213.127Z" transform="translate(-80.278 -37.968)" fill="#857775"/>
    <path id="Path_252" data-name="Path 252" d="M670.063,311.978h-9.412v5.435c0,1.412-4.157,6.579-10.736,9.288-3.632,4.693-2.322,7.239,3.87,6.192,6.866-1.161,10.449-1.548,18.189-4.644C673.8,324.733,671.943,319,670.063,311.978Z" transform="translate(-96.483 -62.146)" fill="#857775"/>
    <path id="Path_253" data-name="Path 253" d="M513.752,221.213l1.548,24.768L559.8,235s3.235.947,8.178,2.205c-6.191,3.656-9.935,7.734-8.325,11.872,3.9,10.04,3.978,37.027,3.63,47.6l20.77-1.37c1.673-5.02-4.415-33.7-7.669-47.407,57.516,10.108,54.728-21.264,53.334-21.264l-2.967-.005c1.548-8.9-25.268-5.92-25.268-5.92s-28.237,1.3-46.327.889C538.133,221.213,513.752,221.213,513.752,221.213Zm-244.3,148.443c-3.649,5.9-21.874,13.686-30.53,16.844,1.755-11.464,5.264-37.128,5.264-48.077q0-.931,0-1.87c-.03-13.156-.063-26.938,13.338-27.608,10.411-.52,22.174,11.508,28.845,18.328h0c2.323,2.375,4.029,4.119,4.844,4.481,2.526,1.123,24.448,4.913,35.093,6.668L323.85,350c-6.785-1.287-22.46-4.211-30.882-5.615s-16.611-6.667-19.652-9.124a42.176,42.176,0,0,1-1.841,6.125h0c-.634,1.885-1.352,4.021-2.02,6.157C265.525,357.093,267.818,366.264,269.455,369.657ZM654.233,480.115c-3.87-6.966-8.127-21.672-11.223-33.282-1.62,5.08-3.864,16.982-3.864,24.226,0,9.054-1.941,41.951-5.08,42.844H623.245c0-6.625,2.223-102.118,6.994-108.479,0,0,7.74.387,13.738.387H658.1c2.166,3.937,2.012,12.9,1.843,22.85-.211,12.378-.447,26.293,3.714,34.006,7.509,13.913,13.03,39.532,13.03,44.611,0,2.636-6.184,4.2-9.276,3.755C664.249,502.567,656.377,483.977,654.233,480.115Z" transform="translate(-4.051 -41.411)" fill="#10bce0" fill-rule="evenodd"/>
    <path id="Path_254" data-name="Path 254" d="M265.9,299.025c2.69-.234,6.667,1.193,6.667,4.562,0,4.211-2.105,3.509-4.562,4.562s-7.369,6.667-8.773,8.422-3.509,3.861-6.317,0c-.936,3.626-4.071,11.792-9.124,15.441s-11.7,3.626-14.389,3.158c.936-.936,4.351-4.07,10.528-9.124,7.721-6.317.995-15.008,5.264-21.056,4.211-5.965,9.592-4.593,14.037-3.86A19.64,19.64,0,0,1,265.9,299.025Z" transform="translate(-1.899 -59.213)" fill="#4b5361"/>
    <path id="Path_255" data-name="Path 255" d="M269.456,395.556c-3.649,5.9-21.874,13.686-30.53,16.845,1.755-11.464,5.264-37.128,5.264-48.077,0-13.687-.7-28.776,13.335-29.478s30.53,21.406,33.689,22.81c2.526,1.123,24.448,4.913,35.093,6.668L323.851,375.9c-6.785-1.287-22.46-4.211-30.882-5.615s-16.611-6.667-19.652-9.124c0,1.053-2.106,6.668-3.861,12.283C265.526,382.992,267.819,392.164,269.456,395.556Z" transform="translate(-4.051 -67.31)" fill="#ffeec7" opacity="0.2"/>
    <path id="Path_256" data-name="Path 256" d="M351.243,485.368h-35.8c-.117-16.026-.351-52.639-.351-70.887s9.592-23.512,14.388-23.863h93.346v4.913H361.77c-9.264,0-10.879,8.188-10.527,12.283Z" transform="translate(-21.266 -79.919)" fill="#e2e1e1"/>
    <path id="Path_257" data-name="Path 257" d="M425.547,381.529H358.169v-2.456h27.372l9.124-22.46h40.708l-9.826,22.46Z" transform="translate(-31.001 -72.233)" fill="#c4c4c4"/>
    <path id="Path_258" data-name="Path 258" d="M750.707,192.668c-3.6-.348-12.34-2.51-18.475-8.366-13.491-7.961-20.126-28.141-22.759-42.876-.45-21.612,18.924-13.944,22.759-8.714s2.44,11.851,3.834,18.824c1.115,5.577,10.225,12.084,14.64,14.64C742.341,178.725,747.221,189.066,750.707,192.668Z" transform="translate(-110.394 -20.34)" fill="#8a6564"/>
    <g id="Group_5" data-name="Group 5" transform="translate(509.701 178.82)" opacity="0.5">
      <path id="Path_259" data-name="Path 259" d="M595.548,245.981,594,221.213s24.381,0,41.409.387c18.091.411,46.327-.889,46.327-.889s26.816-2.981,25.268,5.92-10.449,16.738-21.285,16.738c-17.085,0-45.666-8.369-45.666-8.369Z" transform="translate(-594 -220.231)" fill="#cdc3c2"/>
      <path id="Path_260" data-name="Path 260" d="M723.266,227.488A98.329,98.329,0,0,1,705.206,224c-12.549,1.394-56.886,13.38-52,25.929,3.9,10.04,3.978,37.027,3.63,47.6l20.77-1.37c1.674-5.02-4.415-33.7-7.669-47.407C727.449,258.861,724.66,227.488,723.266,227.488Z" transform="translate(-607.295 -221.083)" fill="#c4b7b6"/>
    </g>
    <path id="Path_261" data-name="Path 261" d="M729.765,162.121c-.837,1.116-7.785-.156-10.457-.621-2.965,1.909-4.773,3.87-4.773,6.579s-5.031,4.644-4.29,8.127A14.161,14.161,0,0,0,713.7,182.4l-1.1,6.966-2.355,7.615-2.44,10.457c2.509,4.741,19.869,6.159,28.235,6.275-1.627-6.042-6.708-20.1-4.478-25.122,1.345-3.027,6.215-11.773,5.031-17.8C735.834,166.919,730.307,161.4,729.765,162.121Z" transform="translate(-110.019 -28.137)" fill="#ee7e79"/>
    <path id="Path_262" data-name="Path 262" d="M717.1,161.564c2.892.505,9.29,1.625,10.09.556.541-.721,6.068,4.8,6.828,8.667,1.019,5.181-2.436,12.37-4.281,16.21-.3.629-.56,1.166-.75,1.592-1.818,4.092,1.222,14.191,3.289,21.057.468,1.557.887,2.947,1.188,4.064-8.366-.116-25.725-1.534-28.235-6.275l2.44-10.457-11.231-4.165c-.116-1.859-.039-5.927,2.75-7.32a61.983,61.983,0,0,0,6.217,1.954c.934.238,1.854.474,3.844,1.142l.809.18,1.064-6.372a14.151,14.151,0,0,1-3.453-6.192c-.413-1.939.963-3.4,2.264-4.778,1.036-1.1,2.026-2.148,2.026-3.349,0-2.709,1.809-4.67,4.773-6.579Z" transform="translate(-107.443 -28.137)" fill="rgba(102,18,14,0.1)"/>
    <path id="Path_263" data-name="Path 263" d="M718.585,144.04c-.558-5.3,1.394-7.085,2.789-9.06,8.087-3.346,8.715,2.091,8.715,6.969,1.046-1.394,3.276-3.556,3.834-1.046a4.828,4.828,0,0,1-1.743,4.88v10.109c-2.51,4.461-6.158,3.718-7.669,2.789v-6.972C720.677,152.058,719.282,150.663,718.585,144.04Z" transform="translate(-112.433 -21.91)" fill="#edc7c5"/>
    <path id="Path_264" data-name="Path 264" d="M689.771,190.08c1.115,1.952,3.635,1.9,6.192,2.709.558.837-.618,3.985-1.548,5.031-1.975-1.394-5.014-3.159-6.966-2.322-2.44,1.046-10.449-2.322-10.449-7.74,0-2.947,7.74,3.581,7.74,1.548,0-1.161-5.031-1.548-3.1-2.322C682.418,186.674,688.377,187.639,689.771,190.08Z" transform="translate(-103.057 -33.884)" fill="#edc7c5"/>
    <path id="Path_265" data-name="Path 265" d="M617.494,138.993V97.078L517.648,37V77.518Z" transform="translate(-67.043)" fill="#f1f1f1"/>
    <path id="Path_266" data-name="Path 266" d="M589.157,101.506V97.092L525.277,58.5v4.56Z" transform="translate(-68.767 -4.859)" fill="#c4b7b6"/>
    <path id="Path_267" data-name="Path 267" d="M587.457,117.553v-3.694L522.5,75.145V78.98Z" transform="translate(-68.141 -8.621)" fill="#c4b7b6"/>
    <ellipse id="Ellipse_15" data-name="Ellipse 15" cx="10.199" cy="11.004" rx="10.199" ry="11.004" transform="translate(546.082 120.155) rotate(180)" fill="#b7cffd"/>
  </g>
</svg>
